<?xml version="1.0" encoding="UTF-8" standalone="no"?>
<svg
   id="Layer_1"
   data-name="Layer 1"
   viewBox="0 0 50 50.000001"
   version="1.1"
   sodipodi:docname="icon-uw.svg"
   width="50"
   height="50"
   inkscape:version="1.4.2 (2aeb623e1d, 2025-05-12)"
   xmlns:inkscape="http://www.inkscape.org/namespaces/inkscape"
   xmlns:sodipodi="http://sodipodi.sourceforge.net/DTD/sodipodi-0.dtd"
   xmlns="http://www.w3.org/2000/svg"
   xmlns:svg="http://www.w3.org/2000/svg"
   xmlns:rdf="http://www.w3.org/1999/02/22-rdf-syntax-ns#"
   xmlns:cc="http://creativecommons.org/ns#"
   xmlns:dc="http://purl.org/dc/elements/1.1/">
  <sodipodi:namedview
     id="namedview7"
     pagecolor="#ffffff"
     bordercolor="#000000"
     borderopacity="0.25"
     inkscape:showpageshadow="2"
     inkscape:pageopacity="0.0"
     inkscape:pagecheckerboard="0"
     inkscape:deskcolor="#d1d1d1"
     inkscape:zoom="4.3595326"
     inkscape:cx="4.3582654"
     inkscape:cy="42.779815"
     inkscape:window-width="1920"
     inkscape:window-height="1011"
     inkscape:window-x="0"
     inkscape:window-y="0"
     inkscape:window-maximized="1"
     inkscape:current-layer="Layer_1" />
  <defs
     id="defs4">
    <style
       id="style1">.cls-1{fill:url(#Web_Shield_blend);}.cls-2{fill:#282728;}.cls-3{fill:#c5050c;}.cls-4{fill:#fff;}</style>
    <radialGradient
       id="Web_Shield_blend"
       cx="0.88999999"
       cy="17.74"
       r="33.439999"
       gradientTransform="matrix(0.49127509,0,0,0.49127509,20.310905,12.827161)"
       gradientUnits="userSpaceOnUse">
      <stop
         offset="0.17"
         stop-color="#fff"
         id="stop1" />
      <stop
         offset="0.3"
         stop-color="#f6ede4"
         id="stop2" />
      <stop
         offset="0.69"
         stop-color="#debe9b"
         id="stop3" />
      <stop
         offset="0.87"
         stop-color="#d4ac7f"
         id="stop4" />
    </radialGradient>
  </defs>
  <title
     id="title4">crest</title>
  <g
     id="g7"
     transform="matrix(1.1807769,0,0,1.1807769,0.51637902,-0.39780482)">
    <path
       class="cls-1"
       d="m 20.743588,41.05069 a 1.7036879,1.7036879 0 0 1 -0.473247,-0.522825 l -0.02704,-0.04056 h -0.04958 C 12.022328,38.571779 7.4701459,26.014968 8.4977672,15.968617 a 21.503426,21.503426 0 0 1 0.5814173,-3.267655 15.950666,15.950666 0 0 1 1.0501565,-2.8800439 10.614246,10.614246 0 0 1 1.690167,-2.5465176 6.6254531,6.6254531 0 0 1 4.86768,-2.316655 0.14873466,0.14873466 0 0 0 0.148734,-0.1261991 2.4744039,2.4744039 0 0 1 1.74876,-1.1718489 h 0.08563 v -0.085635 a 2.113835,2.113835 0 0 1 2.073276,-1.6090386 2.1453848,2.1453848 0 0 1 2.055242,1.5955173 v 0.085635 h 0.08563 a 2.4834181,2.4834181 0 0 1 1.766788,1.1853702 0.14422755,0.14422755 0 0 0 0.166763,0.1171848 6.6254531,6.6254531 0 0 1 4.854158,2.3121479 10.817066,10.817066 0 0 1 1.911015,3.0242719 l 0.103664,0.247891 a 19.182264,19.182264 0 0 1 1.302555,5.408533 c 1.027626,10.073393 -3.524556,22.630204 -11.691441,24.532204 h -0.04958 l -0.02704,0.04056 a 1.7036879,1.7036879 0 0 1 -0.477753,0.536347 z"
       id="path4"
       style="fill:url(#Web_Shield_blend);stroke-width:0.450711" />
    <path
       class="cls-2"
       d="M 33.106593,15.955096 A 22.305692,22.305692 0 0 0 32.718981,13.476185 17.942809,17.942809 0 0 0 32.092493,11.254179 14.10275,14.10275 0 0 0 31.087407,9.0321737 10.199592,10.199592 0 0 0 29.735274,7.1842583 6.7336237,6.7336237 0 0 0 24.799987,4.8315464 h -0.02704 a 2.600603,2.600603 0 0 0 -1.874958,-1.3115693 2.2220057,2.2220057 0 0 0 -4.308798,0 2.600603,2.600603 0 0 0 -1.874959,1.3115693 h -0.02704 A 6.7336237,6.7336237 0 0 0 11.72937,7.1887654 10.199592,10.199592 0 0 0 10.377236,9.0366808 14.10275,14.10275 0 0 0 9.3721508,11.258687 17.942809,17.942809 0 0 0 8.7456623,13.480692 22.305692,22.305692 0 0 0 8.3580508,15.959603 c -1.0141,10.190578 3.5696322,22.720346 11.8131382,24.640376 a 1.4287542,1.4287542 0 0 0 0.572403,0.57691 1.4287542,1.4287542 0 0 0 0.572403,-0.57691 C 29.559497,38.679949 34.143228,26.150181 33.106593,15.955096 Z M 20.743588,2.2309434 a 1.7577733,1.7577733 0 0 1 1.771294,1.2484697 2.1904559,2.1904559 0 0 0 -1.739745,1.1132564 0.07662089,0.07662089 0 0 1 -0.03155,0.040564 0.06760666,0.06760666 0 0 1 -0.03155,-0.040564 2.1904559,2.1904559 0 0 0 -1.739745,-1.1132564 1.7577733,1.7577733 0 0 1 1.771296,-1.2484697 z m -0.838323,1.9335505 a 1.5819959,1.5819959 0 0 1 0.716631,0.9510004 0.2073271,0.2073271 0 0 0 0.121692,0.1667631 0.2073271,0.2073271 0 0 0 0.121692,-0.1892986 1.5819959,1.5819959 0 0 1 0.71663,-0.9510004 1.8884795,1.8884795 0 0 1 2.704267,0.7121235 6.0305144,6.0305144 0 0 0 -0.752688,0.1892987 2.9746932,2.9746932 0 0 0 -1.072692,0.5949386 4.2366843,4.2366843 0 0 0 -1.352133,2.7493377 c -0.301977,3.2946981 3.479489,2.7763801 3.668788,2.7628591 0.486768,0 0.856351,-0.770716 0.856351,-1.8028445 0,-1.0321284 -0.378597,-1.8028444 -0.856351,-1.8028444 -0.292962,0 -0.797759,0.2343698 -0.847337,1.1493133 -0.03155,0.689588 0.283948,1.5459396 0.689588,1.5955176 0.211834,0.02704 0.401133,-0.3425408 0.450711,-0.7211381 0.04958,-0.3785973 0.02704,-0.8428297 -0.265919,-0.9014222 a 0.17127021,0.17127021 0 0 0 -0.207328,0.1261992 1.7262235,1.7262235 0 0 1 0.20282,0.5904315 c 0,0.5633888 -0.57691,0.283948 -0.504796,-0.6129671 0.05409,-0.7842373 0.455218,-0.7436733 0.473247,-0.7436733 0.225355,0 0.567896,0.4507111 0.567896,1.3521333 0,0.7887447 -0.378598,1.6360817 -1.10875,1.1943847 -0.612967,-0.450711 -0.851844,-1.4783327 -0.68508,-2.2535558 0.07662,-0.365076 0.392118,-1.3521333 1.410725,-1.3521333 1.469318,0 2.83948,0.770716 3.930201,2.2084844 -0.121692,0.3831044 -0.878887,1.8479157 -3.281177,3.2496267 l -0.130706,0.06761 a 4.957822,4.957822 0 0 0 -2.222006,-0.450711 12.200749,12.200749 0 0 0 -2.091299,0.333526 1.8434084,1.8434084 0 0 1 -0.414654,0.06761 v 0 a 1.8434084,1.8434084 0 0 1 -0.414655,-0.06761 12.200749,12.200749 0 0 0 -2.091299,-0.333526 4.957822,4.957822 0 0 0 -2.222006,0.450711 l -0.130706,-0.06761 c -2.406797,-1.401711 -3.154978,-2.8665223 -3.281177,-3.2496267 1.090721,-1.4377684 2.460883,-2.2084844 3.930201,-2.2084844 1.018607,0 1.352133,0.9960715 1.410726,1.3521333 0.17127,0.7977586 -0.07211,1.8253798 -0.685081,2.2535558 -0.725645,0.450711 -1.108749,-0.40564 -1.108749,-1.1943847 0,-0.9014222 0.34254,-1.3521333 0.567896,-1.3521333 0,0 0.423668,-0.049578 0.491275,0.7436733 0.07662,0.9014222 -0.491275,1.1763559 -0.504797,0.6129671 A 1.7262235,1.7262235 0 0 1 16.880994,8.7797755 0.17127021,0.17127021 0 0 0 16.687188,8.6535764 c -0.292962,0.072114 -0.320005,0.5859244 -0.26592,0.9014222 0.05409,0.3154978 0.252398,0.7481804 0.450711,0.7211374 0.40564,-0.05408 0.721138,-0.9014218 0.685081,-1.5504458 -0.04507,-0.9014222 -0.554374,-1.1493133 -0.847337,-1.1493133 -0.477753,0 -0.856351,0.770716 -0.856351,1.8028444 0,1.0321287 0.369583,1.8028447 0.856351,1.8028447 0.189299,0 3.970765,0.531839 3.668789,-2.7628594 A 4.2366843,4.2366843 0 0 0 19.026378,5.669869 2.9746932,2.9746932 0 0 0 17.953686,5.0749303 6.0305144,6.0305144 0 0 0 17.18297,4.8766175 1.8884795,1.8884795 0 0 1 19.905265,4.1644939 Z M 12.756987,17.983296 a 14.643603,14.643603 0 0 0 -0.126199,1.491854 20.020587,20.020587 0 0 0 0.901422,6.873344 22.301185,22.301185 0 0 0 1.861437,4.200627 5.1741633,5.1741633 0 0 1 -2.312148,1.050157 30.044401,30.044401 0 0 1 -2.916101,-14.341627 7.2699699,7.2699699 0 0 0 2.591589,0.725645 z m -2.578067,-0.98255 c 0.198312,-3.294698 1.032128,-5.88178 2.253555,-7.6034963 0.216341,0.5588818 1.158328,1.9605933 3.330755,3.2361053 -1.847915,1.113257 -2.704267,3.407376 -2.965679,5.120078 A 7.1257424,7.1257424 0 0 1 10.17892,17.000746 Z m 5.340926,13.760209 c 1.38819,2.388769 2.758352,3.813016 3.808509,4.565704 a 5.201206,5.201206 0 0 1 -1.595518,1.956086 c -1.802844,-1.21692 -3.335262,-3.154978 -4.53866,-5.467126 a 5.322898,5.322898 0 0 0 2.325669,-1.054664 z m 4.020343,4.718946 a 5.4986753,5.4986753 0 0 0 1.203399,0.658038 5.4986753,5.4986753 0 0 0 1.203398,-0.658038 5.4085331,5.4085331 0 0 0 1.59101,1.956086 8.4237903,8.4237903 0 0 1 -1.613545,0.802265 c 0,0 0,-0.04056 0,-0.05859 -0.117185,-0.594939 -0.901422,-0.716631 -1.176356,-0.716631 -0.274934,0 -1.059171,0.121692 -1.176356,0.716631 0,0 0,0.04056 0,0.05859 a 8.4237903,8.4237903 0 0 1 -1.613546,-0.802265 5.4085331,5.4085331 0 0 0 1.581996,-1.956086 z m 2.618631,-0.144228 c 1.050157,-0.752688 2.420319,-2.176935 3.808509,-4.565703 a 5.322898,5.322898 0 0 0 2.325669,1.063678 c -1.203398,2.294119 -2.731309,4.241191 -4.53866,5.449097 A 5.201206,5.201206 0 0 1 22.15882,35.326659 Z m 3.930201,-4.782045 a 22.301185,22.301185 0 0 0 1.865944,-4.209641 19.876359,19.876359 0 0 0 0.748181,-3.299206 19.98453,19.98453 0 0 0 0.153241,-3.569631 14.643603,14.643603 0 0 0 -0.144227,-1.491854 7.2699699,7.2699699 0 0 0 2.591589,-0.725645 30.044401,30.044401 0 0 1 -2.898073,14.341627 5.1741633,5.1741633 0 0 1 -2.316655,-1.054664 z m 2.60511,-12.800195 c -0.279441,-1.712702 -1.126777,-3.966257 -2.965679,-5.120078 2.172428,-1.275512 3.118921,-2.6772235 3.330755,-3.2361053 1.212413,1.7217163 2.050736,4.3087983 2.253556,7.6034963 a 7.1257424,7.1257424 0 0 1 -2.618632,0.743673 z M 19.391454,39.878841 A 10.497061,10.497061 0 0 1 16.74578,38.558257 12.394555,12.394555 0 0 1 15.280969,37.377394 14.017115,14.017115 0 0 1 14.221798,36.264138 Q 13.879258,35.867512 13.56376,35.448351 A 21.40427,21.40427 0 0 1 11.048792,31.08096 28.800439,28.800439 0 0 1 9.5163743,26.465679 31.757104,31.757104 0 0 1 8.7096015,21.593492 29.102415,29.102415 0 0 1 8.6780517,16.707784 c 0.076621,-0.865366 0.1802844,-1.735238 0.3470475,-2.596096 a 17.72196,17.72196 0 0 1 0.6309956,-2.519475 13.972044,13.972044 0 0 1 0.9464932,-2.1904562 9.4333832,9.4333832 0 0 1 1.41974,-2.0011572 7.2970126,7.2970126 0 0 1 1.802844,-1.3972044 6.2784055,6.2784055 0 0 1 0.869873,-0.3921187 q 0.229862,-0.081128 0.450711,-0.1442275 a 3.9752718,3.9752718 0 0 1 0.450711,-0.1171849 6.3099553,6.3099553 0 0 1 1.15382,-0.094649 3.4163901,3.4163901 0 0 1 1.748759,0.4507111 3.6056887,3.6056887 0 0 1 1.505375,2.7042665 c 0.175778,2.0372143 -1.897493,2.3572183 -2.303133,2.3527113 -0.0631,0 -0.09465,-0.05859 0.10817,-0.265919 A 2.9431434,2.9431434 0 0 0 18.26017,8.1983582 C 18.061857,7.2653863 17.403818,6.5352343 16.457325,6.5352343 a 5.0299358,5.0299358 0 0 0 -3.659774,1.7532661 10.267199,10.267199 0 0 0 -1.969607,3.5786456 19.240857,19.240857 0 0 0 -1.0095932,5.1336 28.137893,28.137893 0 0 0 0.1081706,4.791059 30.968359,30.968359 0 0 0 0.8743796,4.77303 27.412249,27.412249 0 0 0 1.59101,4.439504 19.542833,19.542833 0 0 0 2.469897,4.0564 11.66891,11.66891 0 0 0 3.664281,3.123428 8.1804063,8.1804063 0 0 0 0.996072,0.450711 3.0242714,3.0242714 0 0 0 0.320004,1.352133 2.9882145,2.9882145 0 0 1 -0.450711,-0.10817 z m 1.48284,0.698602 a 0.27042666,0.27042666 0 0 1 -0.139721,0.09465 0.27042666,0.27042666 0 0 1 -0.13972,-0.09465 2.925115,2.925115 0 0 1 -0.680574,-2.330176 c 0.05409,-0.288455 0.540854,-0.419162 0.820294,-0.423669 0.279441,-0.0045 0.766209,0.135214 0.820295,0.423669 a 2.925115,2.925115 0 0 1 -0.67156,2.325669 z m 11.90328,-18.983951 a 31.757104,31.757104 0 0 1 -0.806773,4.872187 28.800439,28.800439 0 0 1 -1.541432,4.597253 21.40427,21.40427 0 0 1 -2.514968,4.36739 q -0.315498,0.419162 -0.658038,0.815787 a 14.017115,14.017115 0 0 1 -1.059171,1.113257 12.394555,12.394555 0 0 1 -1.464811,1.180863 10.497061,10.497061 0 0 1 -2.63666,1.338612 2.9882145,2.9882145 0 0 1 -0.450711,0.10817 3.0242714,3.0242714 0 0 0 0.301976,-1.397204 8.1804063,8.1804063 0 0 0 0.996072,-0.450711 11.66891,11.66891 0 0 0 3.664281,-3.096385 19.542833,19.542833 0 0 0 2.469897,-4.0564 27.412249,27.412249 0 0 0 1.59101,-4.439504 30.968359,30.968359 0 0 0 0.892408,-4.755002 28.137893,28.137893 0 0 0 0.108171,-4.791059 19.240857,19.240857 0 0 0 -1.009593,-5.1336 10.267199,10.267199 0 0 0 -2.014679,-3.5470958 5.0299358,5.0299358 0 0 0 -3.659774,-1.7532661 c -0.955508,0 -1.613546,0.7301519 -1.802844,1.6631239 a 2.9431434,2.9431434 0 0 0 0.450711,2.298627 c 0.20282,0.207327 0.17127,0.265919 0.10817,0.265919 -0.40564,0 -2.483418,-0.320005 -2.303133,-2.3527118 a 3.6056887,3.6056887 0 0 1 1.505375,-2.7042665 3.4163901,3.4163901 0 0 1 1.748759,-0.4507111 6.3099553,6.3099553 0 0 1 1.15382,0.094649 3.9527363,3.9527363 0 0 1 0.450711,0.1171849 q 0.23437,0.0631 0.450711,0.1442275 a 6.2784055,6.2784055 0 0 1 0.869873,0.3921187 7.2970126,7.2970126 0 0 1 1.802844,1.3972044 9.4333832,9.4333832 0 0 1 1.41974,2.0011572 13.972044,13.972044 0 0 1 0.991564,2.1589057 17.72196,17.72196 0 0 1 0.630996,2.519476 c 0.157749,0.860858 0.261412,1.73073 0.333526,2.600603 a 29.102415,29.102415 0 0 1 -0.01803,4.881201 z"
       id="path5"
       style="stroke-width:0.450711" />
    <path
       class="cls-3"
       d="m 28.405676,19.538249 c -0.04958,-1.212413 -0.40564,-4.912751 -2.920608,-6.517282 a 4.2411914,4.2411914 0 0 0 -1.956086,-0.527332 c -1.234948,-0.08113 -2.149892,0.392118 -2.767366,0.410147 h -0.01803 c -0.617475,0 -1.541432,-0.491275 -2.776381,-0.410147 a 4.2141487,4.2141487 0 0 0 -1.969607,0.54536 c -2.532997,1.586503 -2.884551,5.286841 -2.916101,6.499254 a 19.614947,19.614947 0 0 0 1.595517,8.563511 c 1.721717,3.826537 3.813016,6.539818 5.899809,7.463776 l 0.166763,0.07211 0.166763,-0.07211 c 2.077778,-0.901423 4.178092,-3.632732 5.922343,-7.468283 a 19.619454,19.619454 0 0 0 1.572984,-8.559004 z"
       id="path6"
       style="stroke-width:0.450711" />
    <path
       class="cls-4"
       d="m 24.48449,16.631163 v 0.820294 h 0.166763 0.08113 a 0.52733198,0.52733198 0 0 1 0.369583,0.126199 0.57240309,0.57240309 0 0 1 0.09465,0.500289 c 0,0 -1.685659,7.297013 -2.005664,8.685203 -0.369583,-1.757773 -2.37074,-11.348905 -2.37074,-11.348905 v -0.04056 h -0.40564 v 0.04507 l -1.744255,11.191153 -1.983129,-8.540975 a 1.2169199,1.2169199 0 0 1 0,-0.126199 0.57240309,0.57240309 0 0 1 0.13972,-0.450711 0.45071109,0.45071109 0 0 1 0.310991,-0.07662 h 0.166763 v -0.81128 h -2.812437 v 0.793251 h 0.126199 a 0.52282487,0.52282487 0 0 1 0.428175,0.374091 l 3.443433,14.769802 v 0.04056 h 0.495782 v -0.04507 l 1.604532,-10.501566 2.041721,10.506075 v 0.04056 h 0.450711 l 3.267656,-14.774305 a 0.45071109,0.45071109 0 0 1 0.450711,-0.338034 h 0.03155 0.162256 v -0.838322 z"
       id="path7"
       style="stroke-width:0.450711" />
  </g>
  <metadata
     id="metadata7">
    <rdf:RDF>
      <cc:Work
         rdf:about="">
        <dc:title>crest</dc:title>
      </cc:Work>
    </rdf:RDF>
  </metadata>
</svg>
