<?xml version="1.0" encoding="UTF-8" standalone="no"?>
<svg
   id="Layer_1"
   data-name="Layer 1"
   viewBox="0 0 50 50.000001"
   version="1.1"
   sodipodi:docname="icon-canonical.svg"
   width="50"
   height="50"
   inkscape:version="1.4.2 (2aeb623e1d, 2025-05-12)"
   inkscape:export-filename="../1b9a6e5c/icon-uw.png"
   inkscape:export-xdpi="96"
   inkscape:export-ydpi="96"
   xml:space="preserve"
   xmlns:inkscape="http://www.inkscape.org/namespaces/inkscape"
   xmlns:sodipodi="http://sodipodi.sourceforge.net/DTD/sodipodi-0.dtd"
   xmlns="http://www.w3.org/2000/svg"
   xmlns:svg="http://www.w3.org/2000/svg"
   xmlns:rdf="http://www.w3.org/1999/02/22-rdf-syntax-ns#"
   xmlns:cc="http://creativecommons.org/ns#"
   xmlns:dc="http://purl.org/dc/elements/1.1/"><sodipodi:namedview
     id="namedview7"
     pagecolor="#ffffff"
     bordercolor="#000000"
     borderopacity="0.25"
     inkscape:showpageshadow="2"
     inkscape:pageopacity="0.0"
     inkscape:pagecheckerboard="0"
     inkscape:deskcolor="#d1d1d1"
     inkscape:zoom="8.7190652"
     inkscape:cx="35.324888"
     inkscape:cy="23.224967"
     inkscape:window-width="1920"
     inkscape:window-height="1011"
     inkscape:window-x="0"
     inkscape:window-y="0"
     inkscape:window-maximized="1"
     inkscape:current-layer="Layer_1" /><defs
     id="defs4"><style
       id="style1">.cls-1{fill:url(#Web_Shield_blend);}.cls-2{fill:#282728;}.cls-3{fill:#c5050c;}.cls-4{fill:#fff;}</style><radialGradient
       id="Web_Shield_blend"
       cx="0.88999999"
       cy="17.74"
       r="33.439999"
       gradientTransform="matrix(0.49127509,0,0,0.49127509,20.310905,12.827161)"
       gradientUnits="userSpaceOnUse"><stop
         offset="0.17"
         stop-color="#fff"
         id="stop1" /><stop
         offset="0.3"
         stop-color="#f6ede4"
         id="stop2" /><stop
         offset="0.69"
         stop-color="#debe9b"
         id="stop3" /><stop
         offset="0.87"
         stop-color="#d4ac7f"
         id="stop4" /></radialGradient><style
       id="style1-3">.cls-1 {fill: none;}.cls-2 {fill: #e95420;}.cls-3 {fill: #fff;}</style></defs><title
     id="title4">crest</title><metadata
     id="metadata7"><rdf:RDF><cc:Work
         rdf:about=""><dc:title>crest</dc:title></cc:Work></rdf:RDF></metadata><rect
     class="cls-2"
     y="8.8817842e-16"
     width="50"
     height="50"
     id="rect9"
     x="1.2767565e-15"
     style="stroke-width:0.157351" /><g
     id="g7"
     transform="translate(0.40355754,-0.00292492)"><rect
       class="cls-1"
       x="2.6633198"
       y="3.0698023"
       width="43.866245"
       height="43.866245"
       id="rect10"
       style="stroke-width:0.228078" /><circle
       class="cls-3"
       cx="8.9742374"
       cy="22.679956"
       r="5.9596786"
       id="circle10"
       style="stroke-width:0.228078" /><circle
       class="cls-3"
       cx="33.798252"
       cy="9.6110821"
       r="5.9596786"
       id="circle11"
       style="stroke-width:0.228078" /><path
       class="cls-3"
       d="m 22.417157,38.020483 c -4.292428,-0.919154 -7.882377,-3.662933 -9.898586,-7.549382 -1.589704,0.723006 -3.3755543,0.944243 -5.0952633,0.627214 2.440435,5.993889 7.6178073,10.3479 13.9697793,11.709525 1.393557,0.298783 2.816763,0.444752 4.233128,0.435629 -1.094774,-1.439172 -1.703742,-3.174845 -1.744797,-4.983504 -0.490368,-0.05473 -0.980734,-0.134582 -1.461978,-0.237201 z"
       id="path11"
       style="stroke-width:0.228078" /><circle
       class="cls-3"
       cx="32.454872"
       cy="38.054695"
       r="5.9596786"
       id="circle12"
       style="stroke-width:0.228078" /><path
       class="cls-3"
       d="m 40.74779,35.865144 c 1.854274,-2.335518 3.15888,-5.097542 3.788374,-8.035187 1.097057,-5.118071 0.07298,-10.489309 -2.80992,-14.845599 -0.686515,1.617071 -1.851995,2.985539 -3.352748,3.925221 1.60795,3.031157 2.09832,6.529876 1.37759,9.896306 -0.353518,1.646723 -0.976172,3.199937 -1.854272,4.618581 1.402679,1.149513 2.392539,2.698163 2.853257,4.440678 z"
       id="path12"
       style="stroke-width:0.228078" /><path
       class="cls-3"
       d="m 8.513522,14.133869 c 0.1505298,-0.0091 0.3033436,-0.01151 0.4538735,-0.01151 0.6021271,0 1.2042525,0.06385 1.7995375,0.191583 0.971612,0.207543 1.886203,0.577038 2.720969,1.094774 2.68448,-3.85908 7.0134,-6.1763525 11.704965,-6.2607426 0.0251,-0.4493125 0.08438,-0.9009067 0.180181,-1.3410982 C 25.646744,6.5296338 26.205535,5.3367868 27.001526,4.3149956 19.50688,3.7219937 12.22207,7.5901963 8.513522,14.133754 Z"
       id="path13"
       style="stroke-width:0.228078" /></g></svg>
