<?xml version="1.0" encoding="UTF-8" standalone="no"?>
<svg
   height="50"
   viewBox="0 0 49.999999 50.000002"
   width="50"
   version="1.1"
   id="svg89"
   sodipodi:docname="icon-ucc.svg"
   inkscape:version="1.4.2 (2aeb623e1d, 2025-05-12)"
   xmlns:inkscape="http://www.inkscape.org/namespaces/inkscape"
   xmlns:sodipodi="http://sodipodi.sourceforge.net/DTD/sodipodi-0.dtd"
   xmlns="http://www.w3.org/2000/svg"
   xmlns:svg="http://www.w3.org/2000/svg">
  <defs
     id="defs89" />
  <sodipodi:namedview
     id="namedview89"
     pagecolor="#ffffff"
     bordercolor="#000000"
     borderopacity="0.25"
     inkscape:showpageshadow="2"
     inkscape:pageopacity="0.0"
     inkscape:pagecheckerboard="0"
     inkscape:deskcolor="#d1d1d1"
     inkscape:zoom="7.9780263"
     inkscape:cx="22.561971"
     inkscape:cy="28.766513"
     inkscape:window-width="1920"
     inkscape:window-height="1011"
     inkscape:window-x="0"
     inkscape:window-y="0"
     inkscape:window-maximized="1"
     inkscape:current-layer="svg89" />
  <g
     id="g89"
     transform="translate(-0.0262477,-0.14394055)">
    <path
       d="m 6.8546351,20.075434 h 17.6965829 0.02727 v 1.788605 a 2.0637679,2.0714967 0 0 0 -1.781932,-0.41065 c -1.218259,0.369585 -1.572828,-0.150571 -1.581919,-0.159696 a 1.6410137,1.6471593 0 0 1 -1.109162,0.912553 l -0.02727,0.51103 h -2.231961 l -0.186375,1.405333 h 2.272872 v 0 l -0.07273,0.766545 h -2.291055 l -0.218196,1.565029 h 2.38197 l -0.09091,1.026623 h 4.527561 a 0.63640422,0.63878755 0 0 0 0.39548,0.355896 v 19.099749 c -1.968308,-1.47834 -6.818617,-1.419022 -6.818617,-1.419022 A 40.570768,40.722704 0 0 1 13.455056,45.330357 9.546063,9.581813 0 0 1 9.2820625,44.066469 L 9.1775103,44.00259 A 9.7006184,9.736947 0 0 1 7.2137488,42.277863 9.7642587,9.8008259 0 0 1 4.790867,37.473268 v -0.02737 A 13.387217,13.437352 0 0 1 4.4635736,34.1607 17.651125,17.717229 0 0 1 4.918148,29.666373 v 0 c 0.7000445,-2.587089 0.9727891,-3.869227 0.9727891,-3.869227 a 39.893451,40.042851 0 0 0 0.8773288,-5.165054 c 0,-0.187073 0.031819,-0.369584 0.050003,-0.552095 z"
       fill="#e82c2e"
       stroke-width="0.455425"
       id="path51" />
    <path
       d="m 25.478549,20.079979 h 17.728403 c 0,0.178058 0.03181,0.374377 0.05,0.561566 a 39.893451,40.067456 0 0 0 0.859143,5.181924 c 0,0 0.272744,1.27836 0.972788,3.871605 v 0 a 17.751132,17.828557 0 0 1 0.454578,4.497088 13.132656,13.189937 0 0 1 -0.318204,3.27808 v 0.02739 a 9.7733502,9.8159792 0 0 1 -2.418337,4.825807 9.9597259,10.003168 0 0 1 -1.968306,1.725789 l -0.104552,0.06392 a 9.546063,9.5877004 0 0 1 -4.172993,1.264661 40.634409,40.811648 0 0 1 -4.300274,0.205454 c 0,0 -4.841218,-0.05935 -6.818617,1.419892 V 27.841451 a 0.6454957,0.64831118 0 0 0 0.404571,-0.36068 v 0 h 4.545745 l -0.09092,-1.013557 h 2.38197 L 32.47444,24.91492 h -2.309238 l -0.08637,-0.789844 v 0 h 2.272873 L 32.165329,22.714314 H 29.97428 l -0.04546,-0.520475 a 1.636468,1.6436058 0 0 1 -1.10007,-0.913114 c 0,0 -0.377297,0.529606 -1.581919,0.159795 a 2.0683137,2.0773351 0 0 0 -1.818298,0.424598 v -1.771442 z"
       fill="#003660"
       stroke-width="0.455565"
       id="path52" />
    <path
       d="m 25.219442,26.043996 v -3.509315 c 0.850054,-0.813688 1.500095,-0.804596 2.004673,-0.663678 a 2.3728785,2.3728785 0 0 0 1.209168,0.07728 l 0.21365,3.522952 v 0 a 1.7773861,1.7773861 0 0 1 -1.409181,0 2.241052,2.241052 0 0 0 -2.01831,0.536398"
       fill="#ffffff"
       stroke-width="0.454574"
       id="path53" />
    <polygon
       fill="#ffcb05"
       points="32.24,54.13 32.45,52.56 36.45,52.55 36.31,54.13 "
       transform="matrix(0.45457443,0,0,0.45457443,3.2589514,1.3787871)"
       id="polygon53" />
    <polygon
       fill="#ffcb05"
       points="36.76,49.12 32.92,49.12 33.08,47.82 36.87,47.82 "
       transform="matrix(0.45457443,0,0,0.45457443,3.2589514,1.3787871)"
       id="polygon54" />
    <path
       d="m 28.865129,22.057378 a 1.6819254,1.6819254 0 0 0 0.654587,0.418209 v 0 l 0.345477,4.041166 a 1.6773797,1.6773797 0 0 1 -0.75914,-0.700044 l -0.236378,-3.772968 z"
       fill="#ffcb05"
       stroke-width="0.454574"
       id="path54" />
    <path
       d="m 21.587392,21.94828 a 2.3683328,2.3683328 0 0 0 1.21826,-0.07273 c 0.500031,-0.140918 1.154619,-0.154555 2.009219,0.663679 v 3.509315 a 2.241052,2.241052 0 0 0 -2.009219,-0.54549 1.7819318,1.7819318 0 0 1 -1.409181,0 z"
       fill="#ffffff"
       stroke-width="0.454574"
       id="path55" />
    <path
       d="m 20.500959,22.484678 v 0 a 1.7091999,1.7091999 0 0 0 0.654587,-0.418208 l -0.236378,3.768422 a 1.6773797,1.6773797 0 0 1 -0.763685,0.700044 z"
       fill="#ffcb05"
       stroke-width="0.454574"
       id="path56" />
    <path
       d="m 24.169375,26.998602 h -4.09117 a 1.9864903,1.9864903 0 0 0 1.259171,-1.072795 l 0.250016,0.06819 a 2.3865158,2.3865158 0 0 0 1.21826,-0.06819 c 0.500031,-0.145464 1.154619,-0.159102 2.004673,0.654587 v 0 a 0.84550844,0.84550844 0 0 0 -0.622767,0.404571"
       fill="#ffcb05"
       stroke-width="0.454574"
       id="path57" />
    <path
       d="m 25.010337,27.425902 v 0 c -0.259107,0 -0.454574,-0.100006 -0.454574,-0.21365 0,-0.113643 0.209104,-0.21365 0.454574,-0.21365 0.245471,0 0.454575,0.100007 0.454575,0.21365 0,0.113644 -0.204558,0.21365 -0.454575,0.21365"
       fill="#ffcb05"
       stroke-width="0.454574"
       id="path58" />
    <polygon
       fill="#231f20"
       points="61.23,48.77 62.26,48.77 62.2,48.18 61.15,48.18 "
       transform="matrix(0.45457443,0,0,0.45457443,3.2589514,1.3787871)"
       id="polygon58" />
    <polygon
       fill="#231f20"
       points="61.89,53.63 62.92,53.63 62.85,53.01 61.82,53.01 "
       transform="matrix(0.45457443,0,0,0.45457443,3.2589514,1.3787871)"
       id="polygon59" />
    <path
       d="m 44.384302,21.107318 c 0,0 -0.286385,-2.645624 -0.318203,-4.054804 v -0.09091 C 43.920634,10.22026 46.793544,6.5063868 46.793544,6.5063868 L 41.68413,1.3787871 c 0,0 -2.781998,1.5682819 -7.386837,1.531916 A 15.200969,15.200969 0 0 1 29.010593,2.1470179 12.36897,12.36897 0 0 0 25.033066,1.6242577 11.159802,11.159802 0 0 0 21.05554,2.1470179 15.196423,15.196423 0 0 1 15.768839,2.9107031 C 11.164001,2.947069 8.3820052,1.3787871 8.3820052,1.3787871 L 3.2589514,6.4927498 c 0,0 2.8865477,3.7275102 2.7274464,10.4552112 v 0.09092 c 0,1.422817 -0.3091105,4.068441 -0.3091105,4.068441 a 51.307816,51.307816 0 0 1 -1.7864776,8.423264 c 0,0 -1.9501241,8.036876 2.1228625,12.837182 2.1955946,2.591076 4.2002678,4.027529 10.0733688,4.09117 6.909532,0.05 7.93687,0.909148 8.927842,2.450156 v 0 0 h 0.04091 v 0 0 c 0.986427,-1.559191 2.013765,-2.400155 8.923296,-2.450156 5.873102,-0.04091 7.877773,-1.477367 10.073371,-4.09117 4.09117,-4.800306 2.122861,-12.837182 2.122861,-12.837182 A 51.07144,51.07144 0 0 1 44.384302,21.107318 Z M 4.5817628,6.6563963 v 0 H 4.4817566 4.5817628 v 0 L 8.5820179,2.660687 v 0 C 13.259588,4.6153572 18.778122,3.7516656 18.778122,3.7516656 A 8.8823843,8.8823843 0 0 0 20.750975,3.2970912 12.609895,12.609895 0 0 1 24.9967,2.6515955 h 0.05455 a 12.623532,12.623532 0 0 1 4.250271,0.6591331 8.8914758,8.8914758 0 0 0 1.977399,0.4545744 c 0,0 5.518534,0.8500542 10.164285,-1.1455274 v 0 l 3.995707,3.9866178 v 0.036364 c -0.177284,0.2772901 -1.63192,2.6138028 -2.272872,6.6958816 a 23.556047,23.556047 0 0 0 -0.05,5.832191 H 6.8955469 A 24.00153,24.00153 0 0 0 6.8455436,13.338641 C 6.2136849,9.2474705 4.7454096,6.9109583 4.5817628,6.6563963 Z M 29.915196,26.994057 h -4.068442 a 0.85914568,0.85914568 0 0 0 -0.622766,-0.404572 c 0,0 0,0 0,0 v 0 0 c 0.845508,-0.813688 1.500095,-0.800051 2.000127,-0.654587 a 2.3728785,2.3728785 0 0 0 1.209168,0.07273 l 0.250016,-0.06819 a 2.009219,2.009219 0 0 0 1.231897,1.054613 z m -0.05,-0.454575 a 1.6682882,1.6682882 0 0 1 -0.75914,-0.700044 l -0.236378,-3.768422 a 1.6864711,1.6864711 0 0 0 0.654587,0.418208 v 0 z m -1.21826,-1.06825 a 1.7773861,1.7773861 0 0 1 -1.409181,0 2.241052,2.241052 0 0 0 -2.01831,0.536398 v -3.472949 c 0.850054,-0.813688 1.504641,-0.804596 2.004673,-0.663678 a 2.3637871,2.3637871 0 0 0 1.209168,0.07728 l 0.218196,3.522952 z m -7.309557,0.454575 0.250016,0.06819 a 2.3728785,2.3728785 0 0 0 1.21826,-0.06819 c 0.504577,-0.145464 1.154619,-0.159102 2.004673,0.654587 a 0.85005421,0.85005421 0 0 0 -0.622767,0.404571 h -4.09117 a 1.9864903,1.9864903 0 0 0 1.240988,-1.059158 z m -0.831871,-3.459312 v 0 a 1.7001084,1.7001084 0 0 0 0.654584,-0.418208 l -0.236379,3.768422 a 1.6819254,1.6819254 0 0 1 -0.763685,0.700044 z m 2.272872,3.018374 a 1.7864775,1.7864775 0 0 1 -1.413727,0 l 0.213651,-3.541134 a 2.3637871,2.3637871 0 0 0 1.227351,-0.06819 c 0.504577,-0.140918 1.154619,-0.154555 2.009219,0.663679 v 3.509315 A 2.241052,2.241052 0 0 0 22.805652,25.507598 Z M 24.5694,46.849867 C 22.601093,45.377045 17.750784,45.436141 17.750784,45.436141 A 40.570768,40.570768 0 0 1 13.459601,45.249766 9.546063,9.546063 0 0 1 9.2866084,43.990596 L 9.1820563,43.926955 A 9.7006184,9.7006184 0 0 1 7.2182948,42.208662 9.7642587,9.7642587 0 0 1 4.790867,37.408357 v -0.02727 A 13.387217,13.387217 0 0 1 4.4635736,34.108148 17.651125,17.651125 0 0 1 4.918148,29.630589 v 0 c 0.7000445,-2.577437 0.9727891,-3.854791 0.9727891,-3.854791 a 39.893451,39.893451 0 0 0 0.8773288,-5.145783 c 0,-0.186375 0.031819,-0.368205 0.050003,-0.550035 h 0.036364 17.6965821 0.02727 v 1.781932 a 2.0637679,2.0637679 0 0 0 -1.781931,-0.409117 c -1.21826,0.368206 -1.572828,-0.150009 -1.58192,-0.159101 a 1.6410137,1.6410137 0 0 1 -1.109161,0.909149 l -0.02727,0.504578 h -2.231959 l -0.186375,1.400089 h 2.272872 v 0 l -0.07273,0.763684 h -2.291055 l -0.218196,1.55919 h 2.38197 l -0.09091,1.022793 h 4.527561 a 0.63640422,0.63640422 0 0 0 0.39548,0.354568 z m -4.545744,-23.737876 -0.05,0.590947 h -1.750115 l 0.07273,-0.590947 z m -0.190921,2.150137 -0.06364,0.718228 h -1.854664 l 0.09546,-0.713682 z m 5.182148,2.159229 c -0.259107,0 -0.454574,-0.100007 -0.454574,-0.21365 0,-0.113644 0.209104,-0.21365 0.454574,-0.21365 0.245471,0 0.454575,0.100006 0.454575,0.21365 0,0.113643 -0.200013,0.218195 -0.459121,0.218195 z m 20.233107,9.968817 v 0.02727 a 9.7733502,9.7733502 0 0 1 -2.441065,4.809398 9.9597259,9.9597259 0 0 1 -1.968306,1.718292 l -0.104552,0.06364 a 9.546063,9.546063 0 0 1 -4.172993,1.259173 40.634409,40.634409 0 0 1 -4.300274,0.204561 c 0,0 -4.841218,-0.0591 -6.818617,1.413726 v -19.07849 a 0.6454957,0.6454957 0 0 0 0.404571,-0.359114 v 0 h 4.545745 l -0.09092,-1.009155 h 2.38197 l -0.209104,-1.545553 h -2.309238 l -0.08637,-0.786414 v 0 h 2.272873 l -0.186376,-1.404635 h -2.191049 l -0.04546,-0.518215 a 1.636468,1.636468 0 0 1 -1.10007,-0.909149 c 0,0 -0.377297,0.527307 -1.581919,0.159101 a 2.0683137,2.0683137 0 0 0 -1.818298,0.422754 v -1.763747 h 0.03182 17.728401 c 0,0.177284 0.03181,0.372751 0.05,0.559126 a 39.893451,39.893451 0 0 0 0.859146,5.15942 c 0,0 0.272745,1.272809 0.972789,3.854791 v 0 a 17.751132,17.751132 0 0 1 0.454574,4.477558 13.132656,13.132656 0 0 1 -0.27729,3.245662 z M 31.124364,23.752941 h -1.045522 l -0.05909,-0.613676 h 1.818298 l 0.05909,0.590947 h -0.76823 z m -0.936424,1.536462 h 1.904667 l 0.08637,0.718227 h -1.922849 z"
       fill="#231f20"
       stroke-width="0.454574"
       id="path59" />
    <path
       d="m 25.842209,26.998602 v 0 a 0.85459995,0.85459995 0 0 0 -0.622767,-0.404571 c 0,0 0,0 0,0 v 0 0 c 0.845508,-0.813688 1.49555,-0.800051 2.000127,-0.654587 a 2.3910615,2.3910615 0 0 0 1.209168,0.07273 l 0.250016,-0.06819 a 2.009219,2.009219 0 0 0 1.231897,1.050067 z"
       fill="#ffcb05"
       stroke-width="0.454574"
       id="path60" />
    <path
       d="m 30.078842,23.730212 -0.05455,-0.613675 h 1.818297 l 0.05455,0.613675 z m 1.500096,-0.18183 -0.02727,-0.268199 h -0.454575 l 0.03636,0.268199 z"
       fill="#ffcb05"
       stroke-width="0.454574"
       id="path61" />
    <path
       d="m 30.192486,25.266674 h 1.904667 l 0.08637,0.718227 h -1.927395 z m 1.168256,0.21365 0.03182,0.286381 h 0.454575 l -0.01818,-0.295473 z"
       fill="#ffcb05"
       stroke-width="0.454574"
       id="path62" />
    <path
       d="M 6.8955469,19.193559 H 43.166039 a 23.637871,23.637871 0 0 1 0.05,-5.83219 C 43.83881,9.2701994 45.293449,6.9427782 45.488915,6.6654877 V 6.6291234 L 41.475023,2.6288671 v 0 C 36.815636,4.6244487 31.292556,3.7607573 31.292556,3.7607573 A 8.8778388,8.8778388 0 0 1 29.315158,3.3061827 12.623532,12.623532 0 0 0 25.051249,2.6515955 h -0.05455 A 12.605349,12.605349 0 0 0 20.750974,3.3107286 8.8687473,8.8687473 0 0 1 18.778121,3.765303 c 0,0 -5.518534,0.8500542 -10.1779211,-1.1455274 v 0 L 4.5999457,6.6154848 v 0 H 4.4999395 l 0.1000062,0.022728 v 0 C 4.7635926,6.8927744 6.2273223,9.229287 6.872818,13.334094 a 23.956073,23.956073 0 0 1 0.022728,5.850373 z"
       fill="#ffcb05"
       stroke-width="0.454574"
       id="path63" />
    <path
       d="m 15.741565,14.197786 v 0 L 15.264262,8.3474132 15.532461,7.5428166 h 0.122735 l 0.581855,-1.7410203 h -1.263717 l -0.154555,0.4318459 h -0.8546 V 5.8017963 H 12.091332 V 6.2336422 H 11.241278 L 11.086723,5.8017963 H 9.827552 l 0.577309,1.7410203 h 0.127281 l 0.259108,0.8045966 -0.477304,5.8594648 v 0 a 0.60458399,0.60458399 0 0 0 -0.504577,0.604584 0.56821803,0.56821803 0 0 0 0.418209,0.550035 v 0 l -0.15001,2.072859 h 2.622894 v -1.445547 0 c 0,-0.140918 0.195468,-0.254561 0.336386,-0.254561 v 0 c 0.145463,0 0.34093,0.113643 0.34093,0.254561 v 1.441002 h 2.609257 l -0.163647,-2.091043 v 0 a 0.5727638,0.5727638 0 0 0 0.413663,-0.550035 0.60458399,0.60458399 0 0 0 -0.509123,-0.604584 M 10.713972,7.1064251 10.42759,6.2336422 h 0.350023 l 0.154555,0.4227541 h 1.59101 V 6.2381878 h 1.018246 v 0.4182085 h 1.591011 l 0.15001,-0.4227541 h 0.354568 l -0.286382,0.8727829 h -0.08637 -4.468466 z m 4.382097,0.4545744 -0.145464,0.4773033 H 11.109452 L 10.959442,7.5609995 Z M 11.21855,8.4701483 h 3.636595 l 0.454574,5.7412757 h -4.568473 z m 4.4321,6.5185977 h -1.963762 a 3.7320561,3.7320561 0 0 0 0.336386,0.409117 h 1.363723 l 0.145464,1.609193 h -1.736475 v -1.018247 a 0.75459356,0.75459356 0 0 0 -0.76823,-0.677315 v 0 a 0.75913929,0.75913929 0 0 0 -0.768231,0.677315 v 1.018247 h -1.727383 l 0.131827,-1.631922 h 1.363723 a 2.8001785,2.8001785 0 0 0 0.322748,-0.409117 h -1.945579 a 0.16819254,0.16819254 0 0 1 -0.168192,-0.163647 0.18637552,0.18637552 0 0 1 0.168192,-0.186375 h 5.241243 a 0.18637552,0.18637552 0 0 1 0.172739,0.186375 0.16819254,0.16819254 0 0 1 -0.172739,0.163647 m -3.227478,-3.945706 h 1.259171 V 9.2792909 A 0.61822124,0.61822124 0 0 0 13.041393,8.7474388 0.60003826,0.60003826 0 0 0 12.418626,9.2792909 Z m 0.386388,-1.7046542 a 0.24547019,0.24547019 0 0 1 0.454574,0 V 10.67938 h -0.454574 z m -1.422818,4.4002802 h 1.259172 V 11.96128 a 0.62276698,0.62276698 0 0 0 -0.636405,-0.536398 0.60003826,0.60003826 0 0 0 -0.622767,0.536398 z m 0.386389,-1.713745 a 0.23183296,0.23183296 0 0 1 0.236378,-0.168193 0.22728722,0.22728722 0 0 1 0.236379,0.168193 v 1.363723 h -0.454574 z m 2.922913,-0.03636 a 0.60003826,0.60003826 0 0 0 -0.618221,-0.536397 0.62276698,0.62276698 0 0 0 -0.636405,0.536397 v 1.750112 h 1.259172 z m -0.386388,1.404635 h -0.454575 v -1.363723 a 0.24547019,0.24547019 0 0 1 0.454575,0 z"
       fill="#231f20"
       stroke-width="0.454574"
       id="path64" />
    <path
       d="M 10.713972,7.1064251 10.42759,6.2336422 h 0.350023 l 0.150009,0.4227541 h 1.59101 V 6.2381878 h 1.018247 v 0.4182085 h 1.59101 l 0.15001,-0.4227541 h 0.354568 l -0.286382,0.8727829 h -0.08637 -4.468466 z m 4.382097,0.4545744 -0.145464,0.4773033 h -3.841153 l -0.15001,-0.4773033 z m -3.882065,0.9091488 h 3.636595 l 0.454575,5.7412757 h -4.563928 z m 4.4321,6.5185977 h -1.959216 a 3.7684221,3.7684221 0 0 0 0.336386,0.409117 h 1.363723 l 0.145464,1.609193 h -1.736475 v -1.018247 a 0.75913929,0.75913929 0 0 0 -0.76823,-0.67277 v 0 a 0.75913929,0.75913929 0 0 0 -0.768231,0.67277 v 1.022793 h -1.727383 l 0.127281,-1.631922 h 1.363723 a 2.6956264,2.6956264 0 0 0 0.322748,-0.409117 h -1.941033 a 0.16819254,0.16819254 0 0 1 -0.168192,-0.163647 0.18182978,0.18182978 0 0 1 0.168192,-0.186375 h 5.241243 a 0.18637552,0.18637552 0 0 1 0.172739,0.186375 0.16819254,0.16819254 0 0 1 -0.172739,0.163647 M 12.41408,11.020311 h 1.259171 V 9.2792909 A 0.61822124,0.61822124 0 0 0 13.036848,8.7474388 0.60003826,0.60003826 0 0 0 12.41408,9.2792909 Z m -1.036429,2.686535 h 1.259171 V 11.96128 a 0.62276698,0.62276698 0 0 0 -0.636404,-0.536398 0.60458399,0.60458399 0 0 0 -0.622767,0.536398 z m 3.309301,-1.750112 a 0.60003826,0.60003826 0 0 0 -0.618221,-0.536397 0.62276698,0.62276698 0 0 0 -0.636404,0.536397 v 1.750112 h 1.259171 z"
       fill="#e82c2e"
       stroke-width="0.454574"
       id="path65" />
    <path
       d="m 34.270019,14.197786 a 0.60458399,0.60458399 0 0 0 -0.504578,0.604584 0.5727638,0.5727638 0 0 0 0.404572,0.550035 v 0 l -0.163647,2.091043 h 2.618348 v -1.450093 c 0,-0.140918 0.200013,-0.254561 0.340931,-0.254561 v 0 c 0.140918,0 0.336385,0.113643 0.336385,0.254561 v 0 1.445547 h 2.622895 L 39.756732,15.34786 v 0 a 0.5727638,0.5727638 0 0 0 0.418209,-0.550035 0.60458399,0.60458399 0 0 0 -0.504578,-0.604584 v 0 L 39.220335,8.3474132 39.479442,7.5428166 h 0.145464 l 0.577309,-1.7410203 h -1.272808 l -0.154556,0.4318459 h -0.8546 V 5.8017963 h -1.872846 v 0.4318459 h -0.8546 L 35.03825,5.8017963 h -1.254626 l 0.581856,1.7410203 h 0.122735 l 0.259107,0.8045966 -0.477303,5.8594648 v 0 m 4.94577,-7.0913614 h -4.463921 -0.08637 L 34.379117,6.2427337 h 0.354568 l 0.150009,0.422754 h 1.591011 V 6.2472796 h 1.018246 v 0.4182081 h 1.591011 l 0.154556,-0.422754 h 0.350022 l -0.286382,0.8727829 z m -0.163647,0.4273 -0.15001,0.4773032 H 35.079161 L 34.933697,7.5428166 Z m 0.218196,6.6504244 h -4.568474 l 0.454575,-5.7412757 h 3.636596 z M 34.36548,14.966017 A 0.16819254,0.16819254 0 0 1 34.192741,14.80237 0.18637552,0.18637552 0 0 1 34.36548,14.615995 h 5.259426 a 0.18637552,0.18637552 0 0 1 0.168192,0.186375 0.16819254,0.16819254 0 0 1 -0.168192,0.163647 h -1.963762 a 2.8001785,2.8001785 0 0 0 0.322748,0.409117 h 1.363723 l 0.131827,1.631922 h -1.727383 v -1.018247 a 0.75913929,0.75913929 0 0 0 -0.768231,-0.677315 v 0 a 0.75459356,0.75459356 0 0 0 -0.768231,0.677315 v 1.018247 h -1.736474 l 0.145464,-1.627376 h 1.363723 a 3.6729614,3.6729614 0 0 0 0.336385,-0.409117 H 34.36548 M 37.592958,9.2883823 A 0.60003826,0.60003826 0 0 0 36.970191,8.7565302 0.61822124,0.61822124 0 0 0 36.333787,9.2883823 v 1.7501117 h 1.254625 z M 37.20657,10.693017 H 36.751995 V 9.3292942 a 0.24547019,0.24547019 0 0 1 0.454575,0 z m 1.422818,1.277355 a 0.60458399,0.60458399 0 0 0 -0.622767,-0.536398 0.62276698,0.62276698 0 0 0 -0.654588,0.527306 v 1.750111 h 1.259172 z m -0.368205,1.395543 h -0.454575 v -1.363723 a 0.22728722,0.22728722 0 0 1 0.236379,-0.168193 0.23183296,0.23183296 0 0 1 0.236379,0.168193 z m -2.922914,0.345476 h 1.240988 V 11.96128 a 0.62276698,0.62276698 0 0 0 -0.636404,-0.536398 0.60003826,0.60003826 0 0 0 -0.618221,0.536398 z m 0.386388,-1.713745 a 0.24547019,0.24547019 0 0 1 0.454575,0 v 1.363723 h -0.454575 z"
       fill="#231f20"
       stroke-width="0.454574"
       id="path66" />
    <path
       d="m 39.220335,7.1155166 h -4.468467 -0.08637 L 34.379117,6.2427337 h 0.354568 l 0.145464,0.422754 h 1.595556 V 6.2472796 h 1.018246 v 0.4182081 h 1.591011 l 0.15001,-0.422754 h 0.350022 l -0.286382,0.8727829 z m -0.163647,0.4273 -0.15001,0.4773032 H 35.079161 L 34.933697,7.5428166 Z m 0.21365,6.6504244 h -4.568474 l 0.454575,-5.7412757 h 3.636596 z M 34.36548,14.966017 A 0.16819254,0.16819254 0 0 1 34.192741,14.80237 0.18637552,0.18637552 0 0 1 34.36548,14.615995 h 5.259426 a 0.18182978,0.18182978 0 0 1 0.168192,0.186375 0.16819254,0.16819254 0 0 1 -0.168192,0.163647 h -1.963762 a 2.6956264,2.6956264 0 0 0 0.322748,0.409117 h 1.363723 l 0.127281,1.631922 h -1.722837 v -1.018247 a 0.75913929,0.75913929 0 0 0 -0.768231,-0.67277 v 0 a 0.75913929,0.75913929 0 0 0 -0.768231,0.67277 v 1.022793 h -1.736474 l 0.145464,-1.631922 h 1.363723 a 3.772968,3.772968 0 0 0 0.336385,-0.409117 H 34.36548 M 37.597504,9.2883823 A 0.60003826,0.60003826 0 0 0 36.974737,8.7565302 0.61822124,0.61822124 0 0 0 36.338332,9.2883823 v 1.7501117 h 1.254626 z m 1.036429,2.6819897 a 0.60458399,0.60458399 0 0 0 -0.622767,-0.536398 0.62276698,0.62276698 0 0 0 -0.636404,0.536398 v 1.750111 h 1.259171 z m -3.309301,1.750111 h 1.254625 V 11.96128 a 0.62276698,0.62276698 0 0 0 -0.636404,-0.536398 0.60003826,0.60003826 0 0 0 -0.618221,0.536398 z"
       fill="#e82c2e"
       stroke-width="0.454574"
       id="path67" />
    <path
       d="m 27.851428,12.820426 a 0.32729359,0.32729359 0 0 0 -0.240925,0.100006 l -0.295473,0.304565 a 0.33638508,0.33638508 0 0 1 -0.24547,0.100006 H 25.828572 L 25.624013,9.8838748 v 0 a 3.6365955,3.6365955 0 0 0 1.854664,-2.0546763 0.75004782,0.75004782 0 0 0 0.186375,0.022728 1.2591712,1.2591712 0 0 0 1.290992,-1.3637236 1.031884,1.031884 0 0 0 -0.104552,-0.4545744 l 0.368205,-0.1772841 -0.186376,-0.3863885 -3.563863,1.781932 v 0 L 25.342177,4.8062785 A 0.17728403,0.17728403 0 0 0 25.169439,4.6335402 0.17273828,0.17273828 0 0 0 25.001246,4.8062785 v 0 l -0.02273,0.4545743 v 0 C 24.80578,5.1790295 24.351205,5.0153827 23.714801,5.5108688 A 1.2864457,1.2864457 0 0 1 22.351078,5.738156 c 0.04546,0.1000066 0.418208,1.3637232 1.55919,1.2500796 a 2.8229072,2.8229072 0 0 1 0.954607,0 v 0 l -0.03636,0.5818554 -4.054804,2.0228562 0.186376,0.3818427 0.34093,-0.1636469 v 0 a 1.2773541,1.2773541 0 0 0 1.181894,0.740956 1.4546382,1.4546382 0 0 0 1.054613,-0.536397 v 0 a 0.97278928,0.97278928 0 0 0 0.609129,0.145463 1.0409754,1.0409754 0 0 0 0.231833,0 l 0.263649,-0.03182 -0.190922,3.182021 H 23.410236 A 0.64094996,0.64094996 0 0 1 23.07385,13.179539 C 22.896566,13.065896 22.737465,12.81588 22.346531,12.81588 h -3.632049 c -0.713682,0 -0.690954,1.177348 -0.04546,1.177348 0.731865,0 0.67277,0.618221 1.00461,0.618221 h 0.477303 l 1.331903,1.913758 v 0 a 0.71822759,0.71822759 0 0 0 0.618221,0.309111 h 1.863756 l 0.831871,1.122799 a 0.1227351,0.1227351 0 0 0 0.109097,0.05909 c 0.07273,0 0.172739,-0.05909 0.172739,-0.127281 a 0.11818935,0.11818935 0 0 0 -0.03636,-0.08637 l -0.718227,-0.972789 h 0.909149 l 0.827325,1.122799 v 0 a 0.11818935,0.11818935 0 0 0 0.109098,0.05909 c 0.07273,0 0.177284,-0.05909 0.177284,-0.127281 a 0.13182658,0.13182658 0 0 0 -0.04091,-0.08637 l -0.718227,-0.97279 h 0.909149 l 0.8546,1.15462 a 0.12728084,0.12728084 0 0 0 0.113643,0.05909 c 0.07273,0 0.172738,-0.05909 0.172738,-0.127281 a 0.13182658,0.13182658 0 0 0 -0.03637,-0.09092 v 0 l -0.704593,-0.963677 h 0.909149 l 0.827326,1.122799 v 0 a 0.11818935,0.11818935 0 0 0 0.109097,0.05909 c 0.06819,0 0.172739,-0.05909 0.172739,-0.127281 a 0.11818935,0.11818935 0 0 0 -0.04091,-0.09092 v 0 L 28.151449,16.8434 h 0.109097 a 0.75004782,0.75004782 0 0 0 0.768231,-0.745502 v -1.177347 c 0,-0.422755 0.100007,-0.777323 0.777322,-0.777323 h 0.909149 V 12.824972 Z M 24.119372,6.6336678 A 1.5864648,1.5864648 0 0 1 23.428419,6.5973034 1.0955244,1.0955244 0 0 1 22.942024,6.1790949 h 0.100006 a 1.6773797,1.6773797 0 0 0 0.995518,-0.4545744 0.69549887,0.69549887 0 0 1 0.909149,-0.059095 v 0 l -0.05,0.995518 a 2.3546956,2.3546956 0 0 0 -0.772776,0 M 23.146586,9.320204 v 0 a 0.98642653,0.98642653 0 0 0 0.150009,0.409117 v 0 A 0.85005421,0.85005421 0 0 1 21.746493,9.6156776 v 0 L 28.56511,6.2290978 v 0 a 0.82732549,0.82732549 0 0 1 0,0.1090981 c 0,0.709136 -0.145464,1.2546255 -1.245534,1.2546255 a 1.2409882,1.2409882 0 0 1 -0.486395,-0.090915 v 0 a 1.1273446,1.1273446 0 0 0 0.313656,0.2091042 2.8229072,2.8229072 0 0 1 -1.900121,1.8910297 1.8910297,1.8910297 0 0 1 -2.091042,-0.2954734 m 2.272872,4.0457121 H 24.90124 l 0.12728,-3.259298 0.195468,-0.04546 h 0.04546 z m -3.245661,3.10929 a 0.45457443,0.45457443 0 0 1 -0.281837,-0.109098 l -1.222805,-1.700109 c -0.03182,-0.04091 0.06819,-0.113643 0.118189,-0.06364 l 1.313721,1.272808 a 0.85459995,0.85459995 0 0 0 0.600038,0.250016 h 0.70459 l 0.245471,0.340931 z m 1.850117,0 -0.24547,-0.340931 h 0.909149 l 0.250016,0.340931 z m 1.2819,0 -0.236378,-0.350023 h 0.909148 l 0.245471,0.340931 z m 1.277355,0 -0.24547,-0.340931 h 0.909148 l 0.250016,0.340931 z m 2.009219,-0.39548 a 0.42275424,0.42275424 0 0 1 -0.377297,0.39548 h -0.350022 l -0.254562,-0.350023 a 0.66367868,0.66367868 0 0 0 0.545489,-0.454574 v -0.03182 l 0.500032,-1.063704 a 1.1500733,1.1500733 0 0 0 -0.06819,0.400025 z m 1.672834,-2.41379 h -1.636469 c -0.213649,0 -0.940969,0.609129 -0.940969,0.609129 a 0.17273828,0.17273828 0 0 1 -0.118189,0.04546 h -4.545744 a 0.38184253,0.38184253 0 0 1 -0.09091,-0.02727 l -1.190985,-0.60004 a 0.29547338,0.29547338 0 0 0 -0.163647,-0.04546 h -2.818366 c -0.209105,0 -0.218196,-0.368205 0,-0.368205 h 3.582046 a 0.3591138,0.3591138 0 0 1 0.172738,0.04546 l 0.486395,0.350023 a 0.7682308,0.7682308 0 0 0 0.390934,0.109097 h 3.836608 a 0.34547657,0.34547657 0 0 0 0.250016,-0.118189 v 0 c 0,0 0.454575,-0.400025 0.536398,-0.400025 h 2.241052 z m -2.954734,2.086496 c 0,0 -0.209105,-0.272745 -0.240925,-0.327294 -0.03182,-0.05455 0,-0.06819 0.03636,-0.06819 a 0.07727765,0.07727765 0 0 1 0.06364,0.03636 c 0.05,0.06364 0.05,0.09546 0.100006,0.09546 a 0.0818234,0.0818234 0 0 0 0.07273,-0.09546 c 0,-0.268199 -0.254562,-0.409117 -0.509124,-0.409117 -0.254562,0 -0.454574,0.12728 -0.454574,0.409117 a 0.11818935,0.11818935 0 0 0 0.118189,0.08637 c 0.09546,0 0.04546,-0.12728 0.131827,-0.12728 a 0.06818617,0.06818617 0 0 1 0.06364,0.03182 l 0.168193,0.222741 0.09546,0.136372 h -0.927332 c 0,0 -0.209104,-0.272745 -0.240924,-0.327293 -0.03182,-0.05455 0,-0.06819 0.03636,-0.06819 a 0.07727765,0.07727765 0 0 1 0.06364,0.03637 c 0.05,0.06364 0.05,0.09546 0.100006,0.09546 a 0.08636914,0.08636914 0 0 0 0.09546,-0.08637 c 0,-0.268199 -0.254562,-0.409117 -0.509124,-0.409117 -0.254561,0 -0.454574,0.127281 -0.454574,0.409117 a 0.11364361,0.11364361 0 0 0 0.118189,0.08637 c 0.09546,0 0.05,-0.127281 0.131827,-0.127281 a 0.06818617,0.06818617 0 0 1 0.06364,0.03182 l 0.168193,0.222741 0.09546,0.136373 h -0.95006 c 0,0 -0.209104,-0.272745 -0.24547,-0.327294 -0.03636,-0.05455 0,-0.06819 0.03636,-0.06819 a 0.07727765,0.07727765 0 0 1 0.06819,0.03637 c 0.05,0.06364 0.05,0.09546 0.100007,0.09546 0.05,0 0.09546,-0.06819 0.09546,-0.08637 0,-0.268199 -0.254561,-0.409117 -0.509123,-0.409117 -0.254562,0 -0.454574,0.127281 -0.454574,0.409117 a 0.11818935,0.11818935 0 0 0 0.118189,0.08637 c 0.09546,0 0.04546,-0.127281 0.131827,-0.127281 a 0.06818617,0.06818617 0 0 1 0.06364,0.03182 l 0.168192,0.222742 0.09546,0.136372 h -0.909144 c 0,0 -0.254562,-0.259107 -0.254562,-0.327294 0,-0.06819 0,-0.06819 0.03636,-0.06819 a 0.07727765,0.07727765 0 0 1 0.06364,0.03637 c 0.05,0.06364 0.05,0.09546 0.100006,0.09546 a 0.0818234,0.0818234 0 0 0 0.09546,-0.08637 c 0,-0.268199 -0.254562,-0.409117 -0.509124,-0.409117 -0.254561,0 -0.454574,0.12728 -0.454574,0.409117 a 0.11364361,0.11364361 0 0 0 0.11819,0.08637 c 0.09091,0 0.04546,-0.12728 0.131826,-0.12728 a 0.06818617,0.06818617 0 0 1 0.06364,0.03182 l 0.168193,0.222741 0.09546,0.136372 h -0.550036 c -0.09546,0 -0.195466,-0.09546 -0.263653,-0.159101 l -1.27733,-1.213704 a 0.6454957,0.6454957 0 0 0 -0.281837,-0.05455 h -0.954606 c -0.240924,0 -0.250016,-0.290927 0,-0.290927 h 1.600102 a 0.36820529,0.36820529 0 0 1 0.168193,0.04091 l 1.181893,0.627313 a 0.50003187,0.50003187 0 0 0 0.263653,0.07273 h 4.545745 a 0.47730315,0.47730315 0 0 0 0.359114,-0.104552 v 0 l 0.413662,-0.409117 -0.604583,1.231897 v 0.02727 a 0.3182021,0.3182021 0 0 1 -0.272745,0.231833 h -0.168193 z"
       fill="#231f20"
       stroke-width="0.454574"
       id="path68" />
    <path
       d="M 24.119372,6.6336678 A 1.5910105,1.5910105 0 0 1 23.428419,6.5973034 1.0909787,1.0909787 0 0 1 22.94657,6.1790949 h 0.100006 a 1.6773797,1.6773797 0 0 0 0.995518,-0.4545744 0.69549887,0.69549887 0 0 1 0.909149,-0.059095 v 0 l -0.05,0.995518 a 2.3546956,2.3546956 0 0 0 -0.772777,0 M 23.151131,9.320204 v 0 a 1.0091552,1.0091552 0 0 0 0.15001,0.409117 v 0 A 0.80914251,0.80914251 0 0 1 22.55109,10.183894 0.81823398,0.81823398 0 0 1 21.751039,9.6202217 v 0 l 6.818616,-3.3865795 v 0 a 1.0909787,1.0909787 0 0 1 0,0.1090977 c 0,0.7091364 -0.150009,1.2546255 -1.245533,1.2546255 a 1.2364425,1.2364425 0 0 1 -0.48185,-0.090915 v 0 A 1.1227988,1.1227988 0 0 0 27.151383,7.7155546 2.8183615,2.8183615 0 0 1 25.251262,9.6065843 1.8910297,1.8910297 0 0 1 23.16022,9.3111109 m 2.272872,4.0457131 H 24.90124 l 0.12728,-3.259299 0.195468,-0.04546 h 0.04546 z m -3.245662,3.109289 a 0.45457443,0.45457443 0 0 1 -0.281836,-0.109098 l -1.227351,-1.704654 c -0.03182,-0.04091 0.06364,-0.113644 0.122735,-0.06364 l 1.31372,1.272809 a 0.85005421,0.85005421 0 0 0 0.600039,0.250015 h 0.70459 l 0.24547,0.340932 z m 1.850118,0 -0.24547,-0.340931 h 0.909149 l 0.250016,0.340931 z m 1.2819,0 -0.240924,-0.354569 h 0.909148 l 0.245471,0.340932 z m 1.2819,0 -0.24547,-0.340931 h 0.909149 l 0.250016,0.340931 z m 2.009219,-0.39548 a 0.42275424,0.42275424 0 0 1 -0.377297,0.39548 H 27.883248 L 27.628687,16.11609 a 0.66367868,0.66367868 0 0 0 0.545489,-0.454574 v -0.03182 l 0.49094,-1.06825 a 1.1500733,1.1500733 0 0 0 -0.06819,0.400026 z m 1.663743,-2.418336 h -1.636469 c -0.213649,0 -0.940969,0.60913 -0.940969,0.60913 a 0.17273828,0.17273828 0 0 1 -0.118189,0.04546 h -4.545744 a 0.38184253,0.38184253 0 0 1 -0.09091,-0.02727 l -1.190985,-0.600039 a 0.29547338,0.29547338 0 0 0 -0.163647,-0.04546 h -2.818366 c -0.209105,0 -0.218196,-0.368205 0,-0.368205 h 3.582046 a 0.3591138,0.3591138 0 0 1 0.172738,0.04546 l 0.48185,0.350023 a 0.77277654,0.77277654 0 0 0 0.390933,0.109097 h 3.836609 a 0.34547657,0.34547657 0 0 0 0.254561,-0.118189 v 0 c 0,0 0.454575,-0.400025 0.536398,-0.400025 h 2.241052 z m -2.954734,2.086497 c 0,0 -0.209105,-0.272745 -0.240925,-0.327294 -0.03182,-0.05455 0,-0.06819 0.03636,-0.06819 a 0.07727765,0.07727765 0 0 1 0.06364,0.03636 c 0.05,0.06364 0.05,0.09546 0.100006,0.09546 0.05,0 0.09546,-0.06819 0.09546,-0.08637 0,-0.268199 -0.254562,-0.409118 -0.509123,-0.409118 -0.254562,0 -0.454575,0.127281 -0.454575,0.409118 a 0.11818935,0.11818935 0 0 0 0.11819,0.08637 c 0.09546,0 0.04546,-0.127281 0.131826,-0.127281 a 0.06818617,0.06818617 0 0 1 0.06364,0.03182 l 0.168192,0.222741 0.09546,0.136372 h -0.950061 c 0,0 -0.209104,-0.272745 -0.240924,-0.327294 -0.03182,-0.05455 0,-0.06819 0.03636,-0.06819 a 0.07727765,0.07727765 0 0 1 0.06819,0.03636 c 0.05,0.06364 0.05,0.09546 0.100006,0.09546 a 0.0818234,0.0818234 0 0 0 0.09546,-0.08637 c 0,-0.268199 -0.254562,-0.409117 -0.509124,-0.409117 -0.254562,0 -0.454574,0.127281 -0.454574,0.409117 a 0.11364361,0.11364361 0 0 0 0.118189,0.08637 c 0.09546,0 0.04546,-0.127281 0.131827,-0.127281 a 0.07273191,0.07273191 0 0 1 0.06364,0.03182 l 0.168193,0.222741 0.09546,0.136373 h -0.954606 c 0,0 -0.209104,-0.272745 -0.24547,-0.327294 -0.03636,-0.05455 0,-0.06819 0.03636,-0.06819 a 0.07727765,0.07727765 0 0 1 0.06819,0.03636 c 0.05,0.06364 0.05,0.09546 0.100007,0.09546 a 0.08636914,0.08636914 0 0 0 0.09546,-0.08637 c 0,-0.268199 -0.254561,-0.409117 -0.509123,-0.409117 -0.254562,0 -0.454574,0.12728 -0.454574,0.409117 a 0.11818935,0.11818935 0 0 0 0.118189,0.08637 c 0.09546,0 0.04546,-0.127281 0.131827,-0.127281 a 0.06818617,0.06818617 0 0 1 0.06364,0.03182 l 0.168192,0.222741 0.09091,0.136372 h -0.909149 c 0,0 -0.250015,-0.268199 -0.250015,-0.336385 0,-0.06819 0,-0.06819 0.03182,-0.06819 a 0.07727765,0.07727765 0 0 1 0.06364,0.03637 c 0.05,0.06364 0.05,0.09546 0.100006,0.09546 a 0.0818234,0.0818234 0 0 0 0.09546,-0.08637 c 0,-0.268199 -0.254562,-0.409117 -0.509123,-0.409117 -0.254562,0 -0.454575,0.12728 -0.454575,0.409117 a 0.11818935,0.11818935 0 0 0 0.118189,0.08637 c 0.09092,0 0.04546,-0.12728 0.131827,-0.12728 a 0.06818617,0.06818617 0 0 1 0.06364,0.03182 l 0.168192,0.222741 0.09546,0.136372 h -0.550035 c -0.09546,0 -0.195467,-0.09546 -0.263653,-0.159101 l -1.277332,-1.213679 a 0.65004143,0.65004143 0 0 0 -0.281836,-0.05455 H 19.83728 c -0.240924,0 -0.250015,-0.290927 0,-0.290927 h 1.604648 a 0.36820529,0.36820529 0 0 1 0.168193,0.04091 l 1.181893,0.627313 a 0.49548613,0.49548613 0 0 0 0.263653,0.07273 h 4.545745 a 0.47730315,0.47730315 0 0 0 0.359114,-0.104552 v 0 l 0.413662,-0.409117 -0.604583,1.231897 v 0.02727 a 0.3182021,0.3182021 0 0 1 -0.272745,0.231833 z"
       fill="#e82c2e"
       stroke-width="0.454574"
       id="path69" />
    <path
       d="m 8.3501848,31.503435 c -0.068186,0 -0.5363976,-0.172738 -0.5363976,-0.172738 -0.2500161,-0.06364 -0.5091236,-0.709136 -0.5091236,-0.709136 a 1.3319031,1.3319031 0 0 1 0.6091298,-0.318202 c 0,0 0.5773098,-0.05455 0.6273127,-0.313657 a 0.90914886,0.90914886 0 0 0 0,-0.136372 c 0,0 0.063641,0.09091 1.6910169,0.09091 1.627377,0 1.691017,-0.100007 1.691017,-0.100007 v 0.03636 c 0,0.331839 0.800051,0.422754 0.800051,0.422754 a 0.6136755,0.6136755 0 0 1 0.39548,0.281836 c 0.04546,0.127281 -0.113644,0.222741 -0.550035,0.704591 -0.11819,0.136372 -0.454575,0.08182 -0.600039,0.109097 l -0.02273,0.04546 a 4.4502836,4.4502836 0 0 1 0.277291,0.604584 0.45457443,0.45457443 0 0 0 -0.200013,0.05909 0.48639466,0.48639466 0 0 0 -0.18183,0.21365 4.3639145,4.3639145 0 0 1 0.186376,0.454575 0.52276059,0.52276059 0 0 0 -0.33184,0.09091 0.94096909,0.94096909 0 0 1 0,0.840963 0.90914886,0.90914886 0 0 0 -0.481848,-0.140918 h -0.15001 c 0,0.713681 -0.259107,0.718227 -0.259107,0.718227 -0.24547,-0.327293 -0.781868,0.03636 -0.781868,0.03636 C 9.7230006,34.208129 9.5457163,33.639911 9.5457163,33.639911 a 0.65913294,0.65913294 0 0 0 -0.3954796,0.24547 2.0183105,2.0183105 0 0 1 -0.2591076,-0.909149 0.77277654,0.77277654 0 0 0 -0.4272999,0.254562 c -0.4136626,-0.454575 0.086369,-1.172802 0.086369,-1.172802 a 2.1319541,2.1319541 0 0 1 -0.3045649,0 c -0.2318327,-0.05909 -0.2954734,-0.02727 -0.3091104,0 A 4.4593751,4.4593751 0 0 1 8.327457,31.426133 m -0.8864203,8.591456 a 0.55912655,0.55912655 0 0 1 0,-0.272744 v 0 a 0.58185527,0.58185527 0 0 0 -0.4227541,0.231834 1.0637042,1.0637042 0 0 1 0.4545744,0.04546 z m 0.1500095,0.827328 a 0.50912338,0.50912338 0 0 1 -0.1090977,-0.254562 0.55912655,0.55912655 0 0 0 -0.286382,0.37275 v 0 a 1.190985,1.190985 0 0 1 0.3954797,-0.14092 m 7.5777558,-0.236376 a 0.86823716,0.86823716 0 0 1 0,-0.127283 0.7273191,0.7273191 0 0 1 0,-0.13637 0.56821803,0.56821803 0 0 0 -0.372751,0.240922 1.6955626,1.6955626 0 0 1 0.381842,0 m 5.454893,0.04092 a 0.52276059,0.52276059 0 0 1 0,-0.263653 0.55458082,0.55458082 0 0 0 -0.386389,0.27729 1.4728212,1.4728212 0 0 1 0.39548,0 m -9.973362,-12.9599 c 0.613675,-0.05 0.968243,0.113644 1.181893,0.568218 a 0.41366273,0.41366273 0 0 0 0.118189,-0.250016 c 0,-0.136372 -0.09546,-0.372751 -0.645495,-0.536398 -0.550035,-0.163646 -0.654587,0.177285 -0.654587,0.218196 M 8.972952,29.63968 a 3.7775135,3.7775135 0 0 0 0.9364232,0.04546 c 0.086369,0 0.1727388,-0.05 0.1727388,-0.222741 a 0.15910105,0.15910105 0 0 0 -0.1727388,-0.168193 5.9821996,5.9821996 0 0 0 -0.9091488,0 c -0.095461,0.04546 -0.090915,0.295474 0,0.354568 m -0.040912,-0.663679 c 0.054549,0.05455 0.3500223,0.03637 0.3500223,0.03637 A 0.35002232,0.35002232 0 0 0 8.9502231,28.644164 c 0,0 -0.045457,0.286382 0,0.34093 m 1.4955499,0.486395 c 0,0.172738 0.08637,0.204559 0.168193,0.222742 a 3.7366019,3.7366019 0 0 0 0.936423,-0.04546 c 0.07273,-0.05909 0.07728,-0.30911 0,-0.354568 a 5.9458337,5.9458337 0 0 0 -0.909149,0 0.15910105,0.15910105 0 0 0 -0.168192,0.168193 m 1.109161,-0.809143 a 0.35002232,0.35002232 0 0 0 -0.359113,0.377297 c 0,0 0.295473,0 0.350022,-0.03637 0.05455,-0.03636 0,-0.340931 0,-0.340931 m -1.086433,-0.700044 -0.127281,0.454574 0.454575,-0.150009 v 0.536397 l -0.454575,-0.145463 0.118189,0.404571 h 0.454575 a 0.59094678,0.59094678 0 0 1 0.581855,-0.659133 c 0.200013,0 -0.195467,-0.454574 -0.70459,-0.454574 a 1.0182467,1.0182467 0 0 0 -0.327294,0.05 m -0.8091424,-0.05 c -0.5091233,0 -0.9091488,0.454574 -0.7045905,0.454574 a 0.59094678,0.59094678 0 0 1 0.5864009,0.659133 h 0.454575 l 0.118189,-0.404571 -0.4545744,0.145463 V 28.198675 L 10.127571,28.348684 10.00029,27.89411 a 1.013701,1.013701 0 0 0 -0.3272934,-0.05 m -1.0273384,0.340931 c 0.2136502,-0.454575 0.568218,-0.618222 1.1818938,-0.568218 0,-0.03637 -0.1409181,-0.372751 -0.6545872,-0.218196 -0.5136692,0.154555 -0.6454957,0.400025 -0.6454957,0.536398 a 0.41366273,0.41366273 0 0 0 0.1181891,0.250016 m 1.1137075,7.63685 a 1.7364743,1.7364743 0 0 1 0.1772839,0.368205 c 0.2500164,-0.181829 0.3500224,-0.268198 0.3500224,-0.21365 0,0.05455 -0.109098,0.236379 0.400026,0.827326 0.713681,-0.300019 0.536398,-1.136436 0.49094,-1.363724 0.400025,-0.02727 0.909149,0.48185 0.909149,0.48185 a 2.0410392,2.0410392 0 0 0 0.286382,-0.709137 5.050322,5.050322 0 0 0 -0.02273,-0.559126 1.4273637,1.4273637 0 0 1 0.727319,-0.281836 c -0.240925,-0.695499 0.09546,-0.909149 0.09546,-0.909149 0,0 -0.290928,-0.272745 -0.07728,-0.909149 a 1.0637042,1.0637042 0 0 1 0.286381,-0.495486 l -0.15001,-0.06819 A 0.6454957,0.6454957 0 0 1 12.932295,31.707994 L 12.84138,31.59435 c -0.204558,0.113644 -0.295473,0.09091 -0.295473,0.09091 0.27729,0.49094 0.240925,0.695499 0.240925,0.695499 -0.281836,-0.104552 -0.400026,0.02727 -0.400026,0.02727 v 0.05455 c 0.209104,0.509123 0.08637,0.695499 0.04546,0.677316 -0.136372,-0.05909 -0.181829,-0.03182 -0.181829,-0.03182 0,0.159101 0,0.154556 0,0.154556 a 1.2364425,1.2364425 0 0 1 -0.57731,1.104623 0.38184253,0.38184253 0 0 0 -0.295473,-0.354568 1.0091552,1.0091552 0 0 1 -0.600038,0.836417 c -0.154556,-0.554581 -0.8591463,0.03637 -0.8591463,0.03637 A 6.6686071,6.6686071 0 0 0 9.4047975,34.194515 C 9.3047913,34.276335 9.259334,34.649089 9.259334,34.649089 A 1.5500988,1.5500988 0 0 1 8.6592956,33.653571 0.35002232,0.35002232 0 0 0 8.5138317,33.908133 C 8.1274435,33.776306 8.009254,33.235363 8.009254,33.235363 a 1.3637233,1.3637233 0 0 1 -0.3954796,0.80005 c 0.077278,0.33184 0.5363976,0.186376 0.5363976,0.186376 a 1.8182978,1.8182978 0 0 1 -0.054549,0.909149 c 0.3772967,0.05 0.4545744,-0.05455 0.4545744,-0.05455 a 1.3909978,1.3909978 0 0 1 0.7364108,1.06825 1.5046414,1.5046414 0 0 0 0.4545744,-0.354568 M 8.1910839,41.426794 A 0.4909404,0.4909404 0 0 1 8.0365284,41.199506 0.56821803,0.56821803 0 0 0 7.8410616,41.654079 v 0 A 1.3046286,1.3046286 0 0 1 8.1819924,41.426794 M 9.7639113,39.608496 A 2.631986,2.631986 0 0 1 10.67306,39.194832 c -0.304564,-0.268198 0.281837,-1.122798 0.281837,-1.122798 a 1.5273701,1.5273701 0 0 0 0.154555,0.177284 c 0.159101,-0.268198 0.327293,-0.52276 0.327293,-0.52276 a 2.7683583,2.7683583 0 0 0 -0.454574,-0.654587 c 0,0 -0.340931,0.250016 -0.340931,0.24547 -0.404571,-0.481849 -0.64095,-0.831871 -0.64095,-0.831871 a 2.4319732,2.4319732 0 0 1 0.04546,0.536398 3.8366083,3.8366083 0 0 1 -0.6318584,2.086495 3.432037,3.432037 0 0 1 -0.990972,0.800054 2.9501881,2.9501881 0 0 0 -0.2318331,-0.204561 C 7.9319763,39.526672 7.8274242,39.658501 7.8274242,39.658501 a 0.18182978,0.18182978 0 0 0 -0.068186,0.23183 c 0.022728,0.154556 0.2227413,0.168193 0.2227413,0.168193 a 0.7682308,0.7682308 0 0 1 0.4273,0.263653 0.73186484,0.73186484 0 0 0 -0.3545682,-0.04546 c -0.1909209,0 -0.2091039,0.150006 -0.2091039,0.150006 a 0.26365317,0.26365317 0 0 0 0.045457,0.245471 0.25456168,0.25456168 0 0 0 0.2727445,0 c 0.3500223,-0.172738 0.4273,0 0.4273,0 -0.1727384,0.0591 -0.3636597,0.259108 -0.2000128,0.454574 0.1636469,0.19547 0.6682246,-0.322745 0.6682246,-0.322745 a 0.90914886,0.90914886 0 0 1 0.4545749,-0.32729 C 9.2093307,40.02216 9.7866401,39.567586 9.7866401,39.567586 m 0.6773159,1.304629 -0.02727,-0.04091 a 0.24547019,0.24547019 0 0 1 -0.04091,-0.07273 0.86369142,0.86369142 0 0 1 0,-0.140916 v 0 a 0.59549252,0.59549252 0 0 0 -0.304565,0.345476 c 0,0 0,0 0,0.02273 a 1.9137584,1.9137584 0 0 1 0.404571,-0.113646 m 0.572764,0.531852 v 0 l -0.154555,-0.02273 h -0.03182 l -0.104552,-0.08182 a 0.52276059,0.52276059 0 0 0 0,0.454578 v 0 a 1.3273574,1.3273574 0 0 1 0.240924,-0.327305 m 0.909149,0.168193 a 0.57730954,0.57730954 0 0 1 -0.18638,-0.122737 c 0,0 0,0 0,0 h -0.02727 a 0.55912655,0.55912655 0 0 0 0,0.454577 v 0 a 1.3637233,1.3637233 0 0 1 0.190922,-0.322749 m 4.272995,-4.95486 a 2.7638126,2.7638126 0 0 1 1.818298,-0.586401 1.8182978,1.8182978 0 0 0 -1.045521,-0.240925 2.2728722,2.2728722 0 0 0 -1.063704,0.454574 z m -0.481849,3.109289 a 0.3591138,0.3591138 0 0 1 0.03182,-0.109097 c 0,-0.04091 0.04546,-0.07273 0.07728,-0.127283 h -0.07728 a 0.51821485,0.51821485 0 0 0 -0.400026,0.08637 1.4137265,1.4137265 0 0 1 0.368206,0.172738 m -0.04546,1.691019 -0.07273,-0.08637 c 0,0 0,0 0,0 a 0.56367229,0.56367229 0 0 1 -0.05455,-0.1091 0.54094357,0.54094357 0 0 0 -0.195468,0.38639 1.8910297,1.8910297 0 0 1 0.322748,-0.177284 z m 2.818362,-3.482041 a 0.58640101,0.58640101 0 0 1 -0.372751,0 c 0.454574,-1.231896 0.250016,-1.363723 0.250016,-1.363723 -0.04091,-0.104552 -0.286382,-0.18183 -0.286382,-0.18183 a 2.2455977,2.2455977 0 0 0 -1.754657,0.545489 0.59549252,0.59549252 0 0 0 -0.127281,0.654588 2.0501307,2.0501307 0 0 1 0.236379,-0.140918 c 0.495486,-0.240925 0.345476,0.377296 1.154618,0.545489 0,0 0.550036,0.250016 0.595493,0.681862 a 1.1137074,1.1137074 0 0 1 -0.18183,0.831871 0.74095631,0.74095631 0 0 1 -0.700044,0.395478 2.0137648,2.0137648 0 0 1 -0.404572,-0.02729 1.4500924,1.4500924 0 0 1 -0.600038,-0.23638 c -0.259107,-0.09546 -0.21365,0.281839 -0.21365,0.281839 0.404571,0.186375 0.372751,0.37275 0.372751,0.37275 -0.750048,-0.340931 -0.909149,0.03637 -0.909149,0.03637 a 0.18637552,0.18637552 0 0 0 0.113644,0.227285 2.6501689,2.6501689 0 0 0 0.622767,0.127283 c -0.340931,0.177284 -0.331839,0.381841 -0.331839,0.381841 0,0.213652 0.290927,0.09546 0.290927,0.09546 a 1.2637169,1.2637169 0 0 0 0.509123,-0.495483 0.50003187,0.50003187 0 0 1 0.372752,0.377295 c 0.300019,-0.486392 0.481848,-0.559125 0.481848,-0.559125 a 3.9093401,3.9093401 0 0 1 0.804597,-0.4273 0.99097226,0.99097226 0 0 1 0.454575,0.140919 1.7682945,1.7682945 0 0 0 -0.18183,-0.722776 1.8182978,1.8182978 0 0 1 0.431846,0.08182 1.2955371,1.2955371 0 0 1 -0.07728,-0.781867 0.86823716,0.86823716 0 0 1 -0.495486,-0.868237 m 2.427427,1.572826 a 0.57730954,0.57730954 0 0 0 -0.454574,0.168193 1.5773733,1.5773733 0 0 1 0.39548,0.100009 v 0 a 0.17728403,0.17728403 0 0 1 0,-0.04546 0.23637871,0.23637871 0 0 1 0,-0.0591 0.67731593,0.67731593 0 0 1 0,-0.08182 0.24092445,0.24092445 0 0 1 0.02273,-0.04091 m 0.381843,1.804661 a 0.5318521,0.5318521 0 0 1 -0.150009,-0.145465 l -0.03182,-0.04546 a 0.55003508,0.55003508 0 0 0 -0.122735,0.454577 1.2500797,1.2500797 0 0 1 0.304565,-0.259107 m 0.07728,-1.000066 c 0,0 -0.159101,-0.118188 -0.263654,-0.08637 0,0 -0.172738,0.03637 -0.177283,0.181829 a 0.25910743,0.25910743 0 0 0 0.104552,0.190921 l 0.05455,0.03181 c 0,0 0.100006,-0.281835 0.281836,-0.313654 m 2.272872,-0.877328 a 0.63185845,0.63185845 0 0 1 -0.172738,-0.454576 2.2183232,2.2183232 0 0 1 0.145463,-1.113707 2.8138158,2.8138158 0 0 1 -0.513669,0 1.3955435,1.3955435 0 0 0 -0.250016,-0.695499 1.5046414,1.5046414 0 0 0 -0.200013,0.518215 c -0.995517,-0.327293 -1.177347,-0.909149 -1.177347,-0.909149 a 2.38197,2.38197 0 0 1 -0.09546,-0.972789 c 0.06364,-0.800051 -0.140918,-0.909149 -0.140918,-0.909149 -0.150009,-0.300019 -0.295473,-0.336385 -0.454574,-0.300019 -0.159101,0.03636 -0.422754,0.39548 -0.422754,0.39548 a 1.2500797,1.2500797 0 0 1 0.168192,-0.509124 c 0.21365,-0.359113 0.772777,-0.290927 0.772777,-0.290927 a 1.4637297,1.4637297 0 0 0 1.254624,-1.468274 1.386452,1.386452 0 0 0 -0.959152,-1.422818 1.9546701,1.9546701 0 0 0 -0.681862,-0.06364 5.6139944,5.6139944 0 0 1 -0.681862,-0.04091 c -0.454572,-0.07272 -0.568216,-0.645481 -0.572762,-0.622752 a 0.77732228,0.77732228 0 0 0 -0.100006,0.690953 1.3000829,1.3000829 0 0 1 -0.659133,-0.136372 0.56821803,0.56821803 0 0 1 -0.36366,-0.400026 3.3002104,3.3002104 0 0 0 -0.03182,0.677316 c -0.909149,-0.04546 -3.14111,-0.136372 -3.14111,-1.195531 0,-0.686407 1.559191,-0.909149 2.522888,-0.536398 0,0 0.07728,-0.454574 0,-0.550035 0,0 1.031885,0.695499 1.786478,0.318202 a 1.4364552,1.4364552 0 0 0 0.418208,-0.263653 c 0,0 -0.131826,0.07728 -0.909148,-0.03637 -0.350023,-0.05455 -0.268199,-0.154553 -0.122735,-0.454572 -0.359114,0 -0.240925,-0.06364 -0.818234,-0.204559 a 1.5910105,1.5910105 0 0 0 -1.131891,0.231833 c -0.08182,-0.49094 -0.295473,-0.600038 -0.295473,-0.600038 a 0.7682308,0.7682308 0 0 1 -0.336385,0.668224 2.009219,2.009219 0 0 1 -0.668225,0.313657 c -0.400025,0.136372 -0.986426,0.363659 -0.986426,1.118253 0,1.190985 1.395543,1.468275 2.391061,1.545553 a 9.2096781,9.2096781 0 0 0 0.995518,-0.0045 c 0,0.05 0.05,0.322747 0.05,0.322747 a 0.67277015,0.67277015 0 0 1 0.94097,0 c 0,0 0.154555,-0.409117 0.52276,-0.409117 a 0.8409627,0.8409627 0 0 1 0.67277,0.39548 0.78186801,0.78186801 0 0 1 0.786414,-0.454574 1.0550266,1.0550266 0 0 1 -0.05909,2.109225 3.6365955,3.6365955 0 0 1 -1.400089,-0.12728 3.3729423,3.3729423 0 0 0 -1.159165,-0.354569 3.9366145,3.9366145 0 0 0 -1.422818,0.195467 8.9051132,8.9051132 0 0 1 -2.345604,0 l -0.20456,-0.04546 a 2.6547147,2.6547147 0 0 1 -1.200076,-0.677316 0.71822759,0.71822759 0 0 0 0,0.336385 1.4364552,1.4364552 0 0 0 0.345476,0.527307 c -0.350022,-0.03182 -0.395479,0.177283 -0.395479,0.177283 a 0.55003508,0.55003508 0 0 0 0,0.454575 c 0.190921,0.318202 0.363659,0.695499 0.363659,0.695499 a 1.0091552,1.0091552 0 0 0 -0.39548,-0.168193 c -0.550034,-0.05 -0.631857,0.122736 -0.631857,0.122736 a 0.60458399,0.60458399 0 0 1 0.03182,0.177283 1.4955499,1.4955499 0 0 1 -0.281836,0.936424 3.8093339,3.8093339 0 0 0 -0.213651,0.454574 1.7182914,1.7182914 0 0 0 -0.681861,-0.577309 0.8818744,0.8818744 0 0 1 -0.259108,0.881874 4.4457381,4.4457381 0 0 1 0.872783,1.595556 c 0.372751,1.068251 0.209104,1.43191 0.209104,1.43191 a 0.81368824,0.81368824 0 0 1 -0.70459,0.56367 0.87278293,0.87278293 0 0 1 -0.454574,-0.05455 0.28638189,0.28638189 0 0 0 -0.481849,0.268198 c 0.0591,0.14092 0.263653,0.04546 0.263653,0.04546 0.190921,-0.07728 0.250016,0.04546 0.250016,0.04546 -0.18183,0 -0.195467,0.231834 -0.195467,0.231834 0,0.159098 0.113643,0.177284 0.113643,0.177284 a 0.45457443,0.45457443 0 0 0 0.418209,-0.109101 c 0.09092,-0.04091 0.09092,-0.200011 0.259107,-0.290926 a 0.45457443,0.45457443 0 0 1 0.322748,0 c -0.136372,0 -0.227287,0.259108 -0.227287,0.259108 -0.07728,0.300017 0.259107,0.295472 0.259107,0.295472 0.177284,0 0.231834,-0.290927 0.231834,-0.290927 a 0.67731593,0.67731593 0 0 1 0.454574,-0.268198 c 0.168192,-0.0591 0.159101,-0.136374 0.200013,-0.454574 a 3.9911637,3.9911637 0 0 1 0.504573,-1.086466 C 12.96866,39.072099 13.014117,38.6448 13.014117,38.6448 a 0.33638508,0.33638508 0 0 0 0.290928,-0.168193 1.3637233,1.3637233 0 0 1 -0.422754,-0.650041 1.8819382,1.8819382 0 0 1 0.154555,-1.086433 2.4092445,2.4092445 0 0 1 0.677316,-1.00461 2.5092509,2.5092509 0 0 0 -0.295474,0.963698 0.99097226,0.99097226 0 0 0 1.063704,-1.336449 1.2228052,1.2228052 0 0 1 0.09092,1.259172 c 1.213714,-0.272745 0.831871,-1.536462 0.831871,-1.536462 a 0.84550844,0.84550844 0 0 1 0.345477,0.795505 1.6455595,1.6455595 0 0 1 0.981881,-0.409117 1.6091935,1.6091935 0 0 0 -0.254562,-0.263653 c 1.763749,-0.09092 2.186503,1.045521 2.186503,1.045521 a 1.4091808,1.4091808 0 0 1 0.09092,1.127345 c 0.186376,-0.08637 0.786413,-0.509124 0.786413,-0.509124 a 4.1866306,4.1866306 0 0 0 0.290928,1.10007 c 0,-0.568218 0.718228,-0.18183 0.718228,-0.18183 0.313656,0.172739 1.545553,0.622767 1.545553,0.622767 a 0.6864074,0.6864074 0 0 1 0.418208,0.404572 1.1273446,1.1273446 0 0 1 0.02727,0.772776 0.63185845,0.63185845 0 0 1 -0.559127,0.454573 c -0.109098,0 -0.300019,-0.177284 -0.300019,-0.177284 a 2.7274466,2.7274466 0 0 1 -0.231833,-0.222739 c -0.04546,-0.03637 -0.122735,0 -0.195467,0.03637 -0.07273,0.03637 -0.03636,0.181829 -0.03636,0.181829 a 0.22728722,0.22728722 0 0 0 0.118189,0.145462 0.54548931,0.54548931 0 0 1 0.322748,0.327294 0.5045776,0.5045776 0 0 1 0.504577,0.368205 0.45457443,0.45457443 0 0 0 -0.645495,0 0.22728722,0.22728722 0 0 0 -0.05455,0.250016 c 0.131826,0.190921 0.254562,0.118192 0.504578,0 a 2.4274275,2.4274275 0 0 1 0.790959,-0.113642 c 0.15001,0 0.236379,-0.04546 0.259107,-0.09546 a 3.8275168,3.8275168 0 0 0 0.02727,-0.454573 c 0.02727,-0.418208 0.590942,-0.790958 0.590942,-0.790958"
       fill="#ffcb05"
       stroke-width="0.454574"
       id="path70" />
    <path
       d="m 23.89663,39.067553 a 5.050322,5.050322 0 0 1 -0.02727,-0.713681 c 0,-0.300019 0.454574,-0.527307 0.454574,-0.527307 -0.222741,-0.250016 -0.840962,-0.195466 -0.840962,-0.195466 0,-0.145464 -0.318202,-0.554581 -0.4273,-0.94097 -0.454575,0 -0.636405,0.540944 -0.636405,0.540944 A 1.3637233,1.3637233 0 0 1 21.964693,36.84923 c -0.222741,-0.259107 -0.122735,-1.095524 -0.122735,-1.095524 0,-1.163711 -0.359114,-1.090979 -0.359114,-1.090979 1.622831,-0.286382 1.513733,-1.968307 1.513733,-1.968307 a 1.8182978,1.8182978 0 0 0 -2.00922,-1.768295 h -0.454575 c -0.609129,0 -0.586401,-0.750047 -0.586401,-0.750047 -0.600038,0.05 -0.70459,0.745502 -0.70459,0.745502 -0.518215,-0.08182 -0.454574,-0.722773 -0.454574,-0.722773 -0.563673,0.06364 -0.60913,0.909148 -0.60913,0.909148 -0.82278,0 -2.431973,-0.200012 -2.431973,-0.777322 0,-0.236379 0.204558,-0.418208 1.418272,-0.418208 a 1.4773669,1.4773669 0 0 1 0.995518,0.454574 2.0137648,2.0137648 0 0 0 0.04091,-0.636404 1.7228371,1.7228371 0 0 0 1.581919,0.163647 1.6728339,1.6728339 0 0 0 0.972789,-1.040976 c 0,0 -0.27729,0.259107 -1.400089,0.131826 a 2.0410392,2.0410392 0 0 0 0.268199,-0.668224 0.95915207,0.95915207 0 0 1 -0.809143,0.104552 1.6682882,1.6682882 0 0 0 -1.513733,-0.05455 c 0,0 -0.268199,-0.650042 -0.772776,-0.704591 0,0 0.350022,0.781868 -0.800051,1.218259 -0.227288,0.08637 -1.240989,0.386389 -1.240989,1.418273 0,1.031884 0.954607,1.904666 3.482041,1.904666 a 2.222869,2.222869 0 0 0 0.109098,0.454575 c 0,0 0.454574,-0.709136 1.277354,-0.04091 0,0 0.154555,-0.536398 0.495486,-0.536398 0.340931,0 0.518215,0.527307 0.681861,0.586402 a 0.63185845,0.63185845 0 0 1 0.531852,-0.563673 c 0,0 0.677317,-0.113643 0.713682,0.686408 0,0 0.02273,0.613675 -0.809142,0.645495 a 3.395671,3.395671 0 0 1 -1.422818,-0.236379 3.3729423,3.3729423 0 0 0 -2.272872,-0.05909 6.4640484,6.4640484 0 0 1 -2.513797,0 c -0.727319,-0.150009 -1.150073,-0.409117 -1.150073,-0.700045 0,-0.290927 0.413663,-0.181829 0.386388,-0.259107 -0.05909,-0.177284 -0.21365,-0.286382 -0.454575,-0.390934 -0.568217,-0.222742 -0.681861,-0.354568 0.05455,-1.063704 0,0 0.05,-0.350023 -0.4273,-0.677316 A 0.90914886,0.90914886 0 0 0 12.7141,29.91697 1.2864457,1.2864457 0 0 0 12.859563,29.312386 c 0,0 -0.64095,0.04091 -0.772776,0.327294 0,0 -0.177284,0 -0.177284,-0.15001 0,-0.150009 0,-0.454574 0,-0.454574 0,-0.409117 0.04091,-0.39548 0.145464,-0.545489 a 0.78186801,0.78186801 0 0 0 0.109098,-0.809143 1.3909978,1.3909978 0 0 0 -1.190986,-0.500032 0.78186801,0.78186801 0 0 0 -0.413662,0.286382 v 0 l -0.145464,-0.495486 0.477303,0.159101 V 26.55312 l -0.486395,0.163646 0.127281,-0.527306 H 9.9866529 L 10.132117,26.694038 9.6457221,26.530391 V 27.1077 l 0.4773029,-0.159101 -0.1454635,0.495486 v 0 a 0.78186801,0.78186801 0 0 0 -0.4136626,-0.286382 1.3909978,1.3909978 0 0 0 -1.1909852,0.500032 0.77732228,0.77732228 0 0 0 0.1090977,0.809143 c 0.1045521,0.150009 0.1454639,0.118189 0.1454639,0.531852 0,0 0,0.313656 0,0.454574 0,0.140918 -0.1727384,0.15001 -0.1727384,0.15001 C 8.3229104,29.316932 7.6819606,29.27602 7.6819606,29.27602 a 1.2773541,1.2773541 0 0 0 0.1227351,0.613676 l 0.027273,0.05909 c -0.8546,0.272745 -1.1637104,0.600039 -0.8682374,0.950061 a 8.0277844,8.0277844 0 0 1 0.522761,0.70914 0.45457443,0.45457443 0 0 0 0.2454701,0.122735 1.6591967,1.6591967 0 0 0 -0.3636593,0.909149 0.58640101,0.58640101 0 0 1 0.5454891,-0.122735 h 0.031819 a 0.82277972,0.82277972 0 0 0 -0.031819,0.27729 0.22728722,0.22728722 0 0 0 -0.1636465,0.07728 0.67277015,0.67277015 0 0 0 -0.127281,0.354568 1.5910105,1.5910105 0 0 1 -0.2181957,0.563672 v 0 a 0.45457443,0.45457443 0 0 1 -0.2772905,0.24547 0.71368186,0.71368186 0 0 0 0.6773161,0.568219 c 0.2045583,0.195467 -0.1318266,0.822779 -0.1318266,0.822779 0.5045777,0.286382 0.727319,0.06364 0.727319,0.06364 0.6727701,0.27729 0.536398,1.327357 0.536398,1.327357 a 1.9319414,1.9319414 0 0 1 0.6273127,-0.322748 c 0.1545551,0.359114 0,1.563736 -0.3500226,2.177412 A 2.0637679,2.0637679 0 0 1 8.4138244,39.485762 0.63185845,0.63185845 0 0 0 7.8365145,39.308478 0.45457443,0.45457443 0 0 0 7.5001297,39.549404 c 0,0 -0.6636787,0 -0.727319,0.604584 a 0.96824354,0.96824354 0 0 1 0.7000445,0.02273 l 0.06364,0.03181 0.050003,0.04546 a 1.0364297,1.0364297 0 0 0 -0.06364,0.127282 h -0.040912 a 0.74095631,0.74095631 0 0 0 -0.4182085,0.850052 0.94551483,0.94551483 0 0 1 0.6454957,-0.268199 0.37275104,0.37275104 0 0 0 0.2318328,0.09546 0.71368186,0.71368186 0 0 0 -0.1545551,0.909152 0.94096909,0.94096909 0 0 1 0.5636721,-0.41821 h 0.090915 c 0.059095,0 0.1136436,0 0.1818298,0 0.3363849,0 0.6954986,-0.48185 0.6954986,-0.48185 a 1.0455212,1.0455212 0 0 1 0.6227678,-0.236381 0.63185845,0.63185845 0 0 0 -0.036364,0.454573 0.995518,0.995518 0 0 1 0.6591326,-0.250016 h 0.145464 c 0,0 0,0.02273 0,0.03637 l -0.03182,0.05 a 0.73641057,0.73641057 0 0 0 0.159101,0.931875 0.93187758,0.93187758 0 0 1 0.377297,-0.586398 l 0.07273,-0.05455 a 0.45457443,0.45457443 0 0 0 0.313656,-0.186375 v 0.03181 0.04546 c 0,0 -0.268199,0.61822 0.231833,0.909151 a 0.94551483,0.94551483 0 0 1 0.309111,-0.604585 h 0.06364 a 0.45457443,0.45457443 0 0 0 0.49094,-0.363659 0.25910743,0.25910743 0 0 1 0.200013,-0.177283 c 0.454574,-0.06364 0.4273,-0.172739 0.477303,-0.295476 a 3.5047689,3.5047689 0 0 0 0.05909,-0.577307 4.4230092,4.4230092 0 0 1 0.636404,-1.363725 1.1546191,1.1546191 0 0 1 -0.540944,-0.07273 0.45457443,0.45457443 0 0 0 0.186376,-0.104552 0.36365955,0.36365955 0 0 1 0.281836,-0.113644 3.2274785,3.2274785 0 0 0 -0.340931,-0.313656 0.80459673,0.80459673 0 0 1 -0.327294,-1.095524 c 1.64556,0.100006 2.272873,-0.586401 2.272873,-0.586401 l 0.304565,0.372751 a 1.1591648,1.1591648 0 0 0 0.390932,1.441006 0.45457443,0.45457443 0 0 1 0.259107,-0.559127 c 0.127281,0.354569 0.872783,0.64095 0.872783,0.64095 a 0.48639466,0.48639466 0 0 1 0.322748,0.613676 0.65458717,0.65458717 0 0 1 -0.627313,0.568216 0.86369142,0.86369142 0 0 1 -0.454574,-0.06818 0.90914886,0.90914886 0 0 0 -0.454575,-0.190921 0.49548613,0.49548613 0 0 0 -0.204558,0.03637 h -0.06364 a 0.74550209,0.74550209 0 0 0 -0.909148,0.331836 0.96369781,0.96369781 0 0 1 0.609129,0.222744 0.53639784,0.53639784 0 0 0 -0.454574,0.218193 v 0 c 0,0 -0.663679,0.06819 -0.681862,0.663681 a 0.95006056,0.95006056 0 0 1 0.700045,-0.02729 h 0.03182 a 0.58640101,0.58640101 0 0 0 0.318202,0.177284 c 0,0 0,0 0,0 a 0.41820846,0.41820846 0 0 0 -0.09091,0.0591 0.74095631,0.74095631 0 0 0 -0.24547,0.909147 0.96369781,0.96369781 0 0 1 0.586401,-0.381841 h 0.03182 a 0.58185527,0.58185527 0 0 0 0.163646,0.03181 c 0.268199,0.06364 0.645496,-0.336386 0.645496,-0.336386 0.163647,0.286384 0.222741,0.272744 0.222741,0.272744 0.236379,0.168193 0.522761,-0.209103 0.522761,-0.209103 a 3.4093083,3.4093083 0 0 1 0.454574,-0.454573 c 0.554581,-0.41821 0.795506,-0.213652 0.795506,-0.213652 a 0.58640101,0.58640101 0 0 1 0.304564,0.286384 c 0.336385,-0.209106 0.236379,-0.959152 0.236379,-0.959152 a 2.5592541,2.5592541 0 0 1 0.513669,0.309109 1.3319031,1.3319031 0 0 0 -0.272745,-0.827324 0.80914251,0.80914251 0 0 1 0.08182,-0.836418 2.1955945,2.1955945 0 0 1 -0.454574,-0.222741 c -0.24547,-0.140919 -0.172738,-0.622768 -0.172738,-0.622768 a 2.2728722,2.2728722 0 0 0 0.359114,-0.222742 c 0.359114,0.97279 0.754594,1.022793 0.754594,1.022793 0,-0.159101 0,-0.504578 0.12728,-0.536398 a 17.06927,17.06927 0 0 1 1.763749,0.754594 c 0.272745,0.100006 0.250016,0.490941 0.250016,0.490941 a 0.31365636,0.31365636 0 0 1 -0.27729,0.340931 0.55912655,0.55912655 0 0 0 -0.840963,-0.245471 h -0.05909 c 0,0 -0.663678,-0.06819 -0.804596,0.504578 a 0.93642335,0.93642335 0 0 1 0.690953,0.118188 v 0 a 0.95006056,0.95006056 0 0 0 -0.231833,0.18183 h -0.03636 c 0,0 -0.654587,0.104551 -0.645495,0.695499 a 0.96824354,0.96824354 0 0 1 0.695499,-0.06819 v 0 a 0.7682308,0.7682308 0 0 0 0.322747,0.209106 0.73186484,0.73186484 0 0 0 0.03636,0.918239 0.95915207,0.95915207 0 0 1 0.509123,-0.490938 v 0 a 0.70913612,0.70913612 0 0 0 0.354568,0 1.6591967,1.6591967 0 0 1 0.768231,-0.19547 c 0.768231,0 0.859146,-0.290926 0.850054,-0.836415 -0.0091,-0.545492 0.909149,-0.768231 0.909149,-0.768231 -0.09091,-0.100006 -0.440937,-0.368205 -0.481849,-0.595493 z M 7.4364905,40.017614 a 1.0637042,1.0637042 0 0 0 -0.4545748,-0.04545 0.58185527,0.58185527 0 0 1 0.4227544,-0.231835 v 0 a 0.56821803,0.56821803 0 0 0 0,0.272745 z m -0.2409246,0.972789 v 0 a 0.56367229,0.56367229 0 0 1 0.2863819,-0.37275 0.5045776,0.5045776 0 0 0 0.1090977,0.254562 1.2046223,1.2046223 0 0 0 -0.3954796,0.09546 z M 14.786958,40.594925 A 0.56821803,0.56821803 0 0 1 15.15971,40.354 a 0.73186484,0.73186484 0 0 0 0,0.13637 0.74095631,0.74095631 0 0 0 0,0.122737 1.6546509,1.6546509 0 0 0 -0.372752,-0.04546 z m 5.427619,0.07273 a 0.55458082,0.55458082 0 0 1 0.386389,-0.277294 0.5318521,0.5318521 0 0 0 0,0.263653 1.4682754,1.4682754 0 0 0 -0.386389,-0.01364 z M 11.323102,27.484997 c 0.545489,0.163647 0.645495,0.400025 0.645495,0.536398 a 0.41366273,0.41366273 0 0 1 -0.118189,0.250016 c -0.21365,-0.454575 -0.568218,-0.618221 -1.181893,-0.568218 0,-0.08637 0.140918,-0.413663 0.654587,-0.263654 z m -2.331967,1.841026 a 5.9503793,5.9503793 0 0 1 0.9091487,0 0.15910105,0.15910105 0 0 1 0.1681923,0.168193 c 0,0.172738 -0.081823,0.204558 -0.1681923,0.222741 a 3.7366019,3.7366019 0 0 1 -0.9364232,-0.04546 c -0.063641,-0.109098 -0.068186,-0.345477 0.027273,-0.390934 z m -0.068186,-0.67277 a 0.35456806,0.35456806 0 0 1 0.3591138,0.377297 c 0,0 -0.2954735,0 -0.3500223,-0.03637 -0.054549,-0.03636 -0.00909,-0.340931 -0.00909,-0.340931 z m 1.67738,0.654587 a 5.9640167,5.9640167 0 0 1 0.909149,0 c 0.09546,0.04546 0.08637,0.295474 0,0.354569 a 3.7320561,3.7320561 0 0 1 -0.936424,0.04546 c -0.08637,0 -0.168192,-0.05 -0.168192,-0.222741 a 0.15910105,0.15910105 0 0 1 0.190921,-0.195471 z m 0.977335,-0.313656 c -0.05455,0.05455 -0.350023,0.03637 -0.350023,0.03637 a 0.35002232,0.35002232 0 0 1 0.359114,-0.377297 c 0,0 0.04091,0.268199 -0.01364,0.322748 z M 10.82307,27.903205 c 0.509123,0 0.909149,0.454575 0.70459,0.454575 a 0.59094678,0.59094678 0 0 0 -0.586401,0.659133 h -0.454574 l -0.118189,-0.404571 0.454574,0.145463 v -0.559126 l -0.454574,0.150009 0.12728,-0.454574 a 1.0182467,1.0182467 0 0 1 0.327294,-0.0091 z m -0.813688,0.05 0.12728,0.454574 -0.454574,-0.150009 v 0.536397 l 0.454574,-0.145459 -0.118189,0.404571 H 9.5638989 A 0.59094678,0.59094678 0 0 0 8.9774976,28.394146 c -0.2000128,0 0.1954672,-0.454574 0.7045904,-0.454574 a 1.0091552,1.0091552 0 0 1 0.327294,-0.0045 z m -1.4682759,0.04091 c 0,-0.136372 0.095461,-0.372751 0.6454957,-0.536398 0.5500351,-0.163646 0.6545872,0.177285 0.6545872,0.218196 -0.6136754,-0.05 -0.9682436,0.113644 -1.1818934,0.568218 A 0.41366273,0.41366273 0 0 1 8.5411061,27.975937 Z M 7.8046957,31.330697 C 7.5546796,31.267056 7.2955721,30.621561 7.2955721,30.621561 a 1.3364488,1.3364488 0 0 1 0.6091298,-0.318202 c 0,0 0.5773095,-0.05455 0.6273127,-0.313657 a 0.86823716,0.86823716 0 0 0 0,-0.136372 c 0,0 0.06364,0.09091 1.6910174,0.09091 1.627376,0 1.691017,-0.100007 1.691017,-0.100007 v 0.03636 c 0,0.331839 0.795505,0.422754 0.795505,0.422754 a 0.61822124,0.61822124 0 0 1 0.400025,0.281836 c 0.04546,0.127281 -0.113643,0.222741 -0.550035,0.709136 -0.118189,0.136373 -0.477303,0.08182 -0.600038,0.109098 v 0.04546 a 4.6139305,4.6139305 0 0 1 0.27729,0.604583 0.45457443,0.45457443 0 0 0 -0.200012,0.05455 0.48184889,0.48184889 0 0 0 -0.18183,0.21365 3.9866178,3.9866178 0 0 1 0.186376,0.454575 0.52276059,0.52276059 0 0 0 -0.33184,0.09091 0.94096909,0.94096909 0 0 1 0,0.840963 0.90914886,0.90914886 0 0 0 -0.477303,-0.140918 h -0.150009 c 0,0.713681 -0.259108,0.718227 -0.259108,0.718227 -0.24547,-0.327293 -0.781868,0.03636 -0.781868,0.03636 C 9.7366369,34.20815 9.5638989,33.639932 9.5638989,33.639932 a 0.66367868,0.66367868 0 0 0 -0.39548,0.240924 2.0183105,2.0183105 0 0 1 -0.2591076,-0.88642 0.77277654,0.77277654 0 0 0 -0.4272999,0.254562 c -0.4136626,-0.454575 0.081824,-1.168257 0.081824,-1.168257 a 2.1364998,2.1364998 0 0 1 -0.3045649,0 c -0.2318331,-0.05909 -0.2954734,-0.02727 -0.3091108,0 a 4.5457443,4.5457443 0 0 1 0.390934,-0.631858 C 8.2865447,31.489793 7.8046961,31.330694 7.8046961,31.330694 Z M 9.272971,36.17646 A 1.3955435,1.3955435 0 0 0 8.5320146,35.10821 c 0,0 -0.077278,0.104552 -0.4545743,0.05455 a 1.8182978,1.8182978 0 0 0 0.054549,-0.909149 c 0,0 -0.4545744,0.140919 -0.5318521,-0.186375 a 1.3637233,1.3637233 0 0 0 0.3909341,-0.800051 c 0,0 0.1181895,0.540943 0.5045777,0.67277 a 0.34547657,0.34547657 0 0 1 0.1500094,-0.254562 1.5455531,1.5455531 0 0 0 0.6091298,0.977335 c 0,0 0.045457,-0.359114 0.145464,-0.454574 a 6.6686071,6.6686071 0 0 1 0.5136691,0.690953 c 0,0 0.7091357,-0.590947 0.8591457,-0.03637 a 1.0091552,1.0091552 0 0 0 0.600038,-0.836413 0.3772968,0.3772968 0 0 1 0.295473,0.354569 1.2364425,1.2364425 0 0 0 0.57731,-1.104616 c 0,0 0,0 0,-0.154555 0,0 0.04546,-0.02273 0.18183,0.03636 0.04091,0 0.163647,-0.168192 -0.04546,-0.677316 v -0.05455 c 0,0 0.118189,-0.131826 0.404571,-0.02727 0,0 0.03636,-0.204559 -0.240925,-0.695499 0,0 0.09092,0.02273 0.295474,-0.09091 l 0.08637,0.113644 a 0.65913294,0.65913294 0 0 0 0.300019,0.281836 l 0.150009,0.06819 a 1.0637042,1.0637042 0 0 0 -0.286381,0.495486 c -0.213651,0.622767 0.07728,0.909149 0.07728,0.909149 0,0 -0.336386,0.209104 -0.09546,0.909149 a 1.4273637,1.4273637 0 0 0 -0.72732,0.281836 5.0003187,5.0003187 0 0 1 0.05,0.563672 2.0137648,2.0137648 0 0 1 -0.300019,0.690953 c 0,0 -0.518215,-0.509123 -0.909149,-0.481849 0.05,0.227288 0.222742,1.063705 -0.49094,1.363724 -0.509123,-0.590954 -0.400026,-0.786421 -0.400026,-0.827333 0,-0.04091 -0.100006,0.03182 -0.3500219,0.21365 A 1.6910169,1.6910169 0 0 0 9.7684572,35.826439 1.5091871,1.5091871 0 0 1 9.2866084,36.176461 Z m -1.4364553,5.454895 v 0 a 0.56821803,0.56821803 0 0 1 0.1954672,-0.454577 0.48639466,0.48639466 0 0 0 0.1545554,0.227288 1.3000829,1.3000829 0 0 0 -0.3363852,0.250017 z m 1.6637425,-1.159167 a 0.90914886,0.90914886 0 0 0 -0.4545744,0.327294 c 0,0 -0.4545744,0.577311 -0.6636786,0.322749 -0.2091043,-0.254562 0.027273,-0.400027 0.2000127,-0.454573 0,0 -0.077278,-0.163648 -0.4272999,0 a 0.25910743,0.25910743 0 0 1 -0.2772905,0 0.25910743,0.25910743 0 0 1 -0.045457,-0.245471 c 0,0 0,-0.127283 0.2091043,-0.150011 a 0.73641057,0.73641057 0 0 1 0.3545682,0.04546 0.7682308,0.7682308 0 0 0 -0.4273,-0.263654 c 0,0 -0.2000128,0 -0.2227417,-0.168192 a 0.18182978,0.18182978 0 0 1 0.06364,-0.231831 c 0,0 0.1045522,-0.131828 0.3636597,0.04546 a 3.0683774,3.0683774 0 0 1 0.2318331,0.204561 3.4411285,3.4411285 0 0 0 1.009155,-0.795505 3.8456998,3.8456998 0 0 0 0.6227669,-2.113773 2.4046988,2.4046988 0 0 0 -0.050003,-0.536398 c 0,0 0.236379,0.350023 0.64095,0.831872 0,0 0.345477,-0.245471 0.345477,-0.245471 a 2.7729041,2.7729041 0 0 1 0.454574,0.654587 c 0,0 -0.168192,0.259108 -0.327293,0.522761 a 1.5637361,1.5637361 0 0 1 -0.154556,-0.177292 c 0,0 -0.590947,0.850054 -0.281836,1.122798 a 2.6228945,2.6228945 0 0 0 -0.9091495,0.413664 c 0,0 -0.5591265,0.436391 -0.2545613,0.890965 z m 0.5454898,0.52276 c 0,0 0,0 0,-0.02273 a 0.59549252,0.59549252 0 0 1 0.304565,-0.345477 v 0 a 0.94096909,0.94096909 0 0 0 0,0.140919 0.23637871,0.23637871 0 0 0 0.04091,0.07273 l 0.02727,0.04545 a 1.8819382,1.8819382 0 0 0 -0.37275,0.127294 z m 0.345476,-0.659131 c 0,0.03181 0,0.05455 0,0.07728 a 0.90914886,0.90914886 0 0 0 -0.381842,0.245466 C 9.1002326,39.84033 11.03672,39.390302 11.113997,39.376665 a 0.55003508,0.55003508 0 0 1 -0.04546,-0.768231 c 0.209105,0.213649 0.381843,0.150009 0.381843,0.150009 -0.159101,-0.504578 0.18183,-0.67277 0.18183,-0.67277 a 3.913886,3.913886 0 0 1 0.377297,1.281901 0.53639784,0.53639784 0 0 1 -0.622768,0.654586 0.58640101,0.58640101 0 0 0 -0.995518,0.33184 z m 0.390934,1.40009 v 0 a 0.51821485,0.51821485 0 0 1 0,-0.454574 0.98642653,0.98642653 0 0 0 0.100007,0.08182 h 0.03182 l 0.09546,0.03637 v 0 a 1.3000829,1.3000829 0 0 0 -0.227287,0.359117 z m 0.959152,0.159101 v 0 a 0.55912655,0.55912655 0 0 1 0,-0.454577 h 0.02727 c 0,0 0,0 0,0 a 0.57730954,0.57730954 0 0 0 0.186376,0.122737 1.3637233,1.3637233 0 0 0 -0.209104,0.354568 z m 4.172993,-5.636725 a 2.2728722,2.2728722 0 0 1 1.059159,-0.454574 1.8182978,1.8182978 0 0 1 1.045521,0.240925 2.7592668,2.7592668 0 0 0 -1.818298,0.586401 z m -0.559127,3.304757 a 0.51821485,0.51821485 0 0 1 0.404572,-0.08637 h 0.07728 a 1.3637233,1.3637233 0 0 0 -0.07728,0.127279 0.38184253,0.38184253 0 0 0 -0.03182,0.109097 1.3909978,1.3909978 0 0 0 -0.372751,-0.150007 z m 0.318203,1.863754 a 1.9546701,1.9546701 0 0 0 -0.322748,0.177284 0.53639784,0.53639784 0 0 1 0.195467,-0.386387 0.55912655,0.55912655 0 0 0 0.05909,0.109097 c 0,0 0,0 0,0 l 0.07273,0.08637 z m 3.318393,-2.613802 a 1.3000829,1.3000829 0 0 0 0.07728,0.781867 1.8182978,1.8182978 0 0 0 -0.454575,-0.08182 1.7728403,1.7728403 0 0 1 0.18183,0.727321 0.995518,0.995518 0 0 0 -0.454574,-0.140919 3.913886,3.913886 0 0 0 -0.804597,0.4273 c 0,0 -0.186376,0.07728 -0.481849,0.559125 a 0.50003187,0.50003187 0 0 0 -0.372751,-0.377295 1.2591712,1.2591712 0 0 1 -0.509124,0.495487 c 0,0 -0.313656,0.113642 -0.290927,-0.09546 0,0 0,-0.204557 0.331839,-0.381841 a 2.6228945,2.6228945 0 0 1 -0.622767,-0.127279 0.18637552,0.18637552 0 0 1 -0.118189,-0.227289 c 0,0 0.18183,-0.37275 0.909149,-0.03637 0,0 0.03182,-0.181829 -0.372751,-0.37275 0,0 -0.04546,-0.377299 0.21365,-0.281835 a 1.4637297,1.4637297 0 0 0 0.600038,0.236376 1.9955818,1.9955818 0 0 0 0.404571,0.02729 0.74095631,0.74095631 0 0 0 0.754594,-0.381841 1.1227988,1.1227988 0 0 0 0.209104,-0.8546 c -0.04546,-0.454575 -0.595493,-0.681862 -0.595493,-0.681862 -0.809142,-0.168193 -0.663678,-0.781868 -1.154619,-0.54549 a 2.0546765,2.0546765 0 0 0 -0.236378,0.140919 0.59549252,0.59549252 0 0 1 0.122735,-0.654588 2.2728722,2.2728722 0 0 1 1.759203,-0.545489 c 0,0 0.24547,0.07728 0.286382,0.18183 0,0 0.200012,0.12728 -0.250016,1.363723 a 0.58640101,0.58640101 0 0 0 0.372751,0 0.86823716,0.86823716 0 0 0 0.495486,0.859146 z m 1.909213,0.750048 a 0.62276698,0.62276698 0 0 0 0,0.08182 1.1637105,1.1637105 0 0 0 0,0.109097 v 0 a 1.5910105,1.5910105 0 0 0 -0.39548,-0.100006 0.57730954,0.57730954 0 0 1 0.454574,-0.168193 z m 0.09092,2.063766 a 0.55458082,0.55458082 0 0 1 0.122735,-0.454574 l 0.03182,0.04546 a 0.53639784,0.53639784 0 0 0 0.150009,0.145462 1.2500797,1.2500797 0 0 0 -0.30911,0.272748 z m 0.100006,-0.945512 -0.05455,-0.03181 A 0.25910743,0.25910743 0 0 1 20.928263,40.45856 c 0,-0.145462 0.177284,-0.18183 0.177284,-0.18183 0.104552,-0.02729 0.268199,0.08637 0.268199,0.08637 -0.18183,0.04546 -0.286382,0.327295 -0.286382,0.327295 z m 1.963761,-0.404572 a 3.8093339,3.8093339 0 0 1 -0.03182,0.454573 c -0.02273,0.05 -0.109098,0.09092 -0.259108,0.09546 a 2.436519,2.436519 0 0 0 -0.79096,0.113646 c -0.250015,0.118188 -0.37275,0.19092 -0.504577,0 a 0.22274147,0.22274147 0 0 1 0.05455,-0.250017 0.45457443,0.45457443 0 0 1 0.645496,0 0.50003187,0.50003187 0 0 0 -0.504578,-0.368208 0.55458082,0.55458082 0 0 0 -0.322748,-0.327291 0.22274147,0.22274147 0 0 1 -0.113643,-0.145465 c 0,0 -0.03636,-0.127279 0.03636,-0.181829 0.07273,-0.05455 0.150009,-0.06819 0.195467,-0.03637 a 2.6683519,2.6683519 0 0 0 0.231833,0.222739 c 0,0 0.186375,0.186379 0.300019,0.177288 a 0.63185845,0.63185845 0 0 0 0.559126,-0.454577 1.1182531,1.1182531 0 0 0 -0.02727,-0.772776 0.68186166,0.68186166 0 0 0 -0.418208,-0.404571 c 0,0 -1.231897,-0.454574 -1.545553,-0.622767 0,0 -0.731865,-0.381842 -0.718228,0.18183 a 4.200268,4.200268 0 0 1 -0.290928,-1.100072 c 0,0 -0.60913,0.431846 -0.79096,0.522761 a 1.4091808,1.4091808 0 0 0 -0.09091,-1.127345 c 0,0 -0.4273,-1.136436 -2.186503,-1.045521 a 1.600102,1.600102 0 0 1 0.254562,0.263653 1.6455595,1.6455595 0 0 0 -0.981881,0.404571 0.84550844,0.84550844 0 0 0 -0.345476,-0.795505 c 0,0 0.381842,1.263717 -0.831872,1.536462 a 1.2228052,1.2228052 0 0 0 -0.09092,-1.259171 0.99097226,0.99097226 0 0 1 -1.063704,1.336448 2.5047052,2.5047052 0 0 1 0.290928,-0.959152 2.4137902,2.4137902 0 0 0 -0.695498,0.986427 1.8864839,1.8864839 0 0 0 -0.154556,1.086433 1.3637233,1.3637233 0 0 0 0.395479,0.650041 0.33183934,0.33183934 0 0 1 -0.290927,0.168193 c 0,0 -0.04546,0.4273 0.559126,0.52276 a 4.0002552,4.0002552 0 0 0 -0.504577,1.086431 c -0.04091,0.300022 -0.03182,0.3773 -0.200013,0.454578 a 0.67731593,0.67731593 0 0 0 -0.454574,0.268198 c 0,0 -0.05455,0.272745 -0.231833,0.290927 0,0 -0.331839,0 -0.259107,-0.290927 0,0 0.08637,-0.24547 0.227287,-0.263653 a 0.45457443,0.45457443 0 0 0 -0.322748,0 c -0.168192,0.09092 -0.168192,0.250017 -0.259107,0.290927 a 0.45457443,0.45457443 0 0 1 -0.413666,0.109096 c 0,0 -0.122735,0 -0.113644,-0.172739 0,0 0,-0.236376 0.195467,-0.236376 0,0 -0.05909,-0.122737 -0.250016,-0.04546 0,0 -0.204558,0.09546 -0.263653,-0.04546 a 0.28638189,0.28638189 0 0 1 0.477303,-0.268198 0.87732867,0.87732867 0 0 0 0.477304,0.05455 0.81368824,0.81368824 0 0 0 0.718227,-0.568216 c 0,0 0.163647,-0.363659 -0.21365,-1.43191 a 4.4411922,4.4411922 0 0 0 -0.872783,-1.595557 0.87732867,0.87732867 0 0 0 0.272745,-0.859145 1.7228371,1.7228371 0 0 1 0.70459,0.581855 3.8047879,3.8047879 0 0 1 0.209104,-0.454574 1.5000956,1.5000956 0 0 0 0.281837,-0.936424 0.62731271,0.62731271 0 0 0 -0.03182,-0.172738 c 0,0 0.08182,-0.177284 0.631858,-0.127281 a 1.013701,1.013701 0 0 1 0.395479,0.168193 c 0,0 -0.172738,-0.377297 -0.363659,-0.695499 a 0.55003508,0.55003508 0 0 1 0,-0.454575 c 0,0 0.04546,-0.209104 0.39548,-0.177284 a 1.4455467,1.4455467 0 0 1 -0.340931,-0.518214 0.73186484,0.73186484 0 0 1 0,-0.336386 2.6547147,2.6547147 0 0 0 1.200077,0.677316 l 0.204558,0.04546 a 8.9369336,8.9369336 0 0 0 2.345604,0 3.927523,3.927523 0 0 1 1.422818,-0.195467 3.3820338,3.3820338 0 0 1 1.16371,0.354568 3.6365955,3.6365955 0 0 0 1.395544,0.127281 1.0550269,1.0550269 0 0 0 0.0591,-2.109226 0.78186801,0.78186801 0 0 0 -0.786414,0.454575 0.8409627,0.8409627 0 0 0 -0.67277,-0.39548 c -0.368205,0 -0.522761,0.409117 -0.522761,0.409117 a 0.66822442,0.66822442 0 0 0 -0.940969,0 c 0,0 -0.05,-0.272745 -0.05,-0.322748 a 9.3915079,9.3915079 0 0 1 -1.009155,-0.01364 c -0.995518,-0.07273 -2.391062,-0.350022 -2.391062,-1.545553 0,-0.754593 0.586401,-0.98188 0.986427,-1.118253 a 2.0364935,2.0364935 0 0 0 0.663678,-0.313657 0.7682308,0.7682308 0 0 0 0.340931,-0.659133 c 0,0 0.209104,0.113644 0.295474,0.600039 a 1.5864648,1.5864648 0 0 1 1.136436,-0.254562 c 0.577309,0.140918 0.454574,0.186375 0.82278,0.204558 -0.15001,0.30002 -0.227288,0.400026 0.118189,0.454575 0.76823,0.113643 0.909149,0.03636 0.909149,0.03636 a 1.4319095,1.4319095 0 0 1 -0.422755,0.263653 c -0.754593,0.377297 -1.786477,-0.318202 -1.786477,-0.318202 0.07728,0.100006 0,0.550035 0,0.550035 -0.959152,-0.359114 -2.518342,-0.145464 -2.518342,0.536398 0,1.059158 2.236506,1.150073 3.141109,1.190985 a 3.2547529,3.2547529 0 0 1 0.03182,-0.67277 0.5727638,0.5727638 0 0 0 0.363659,0.400025 1.3137201,1.3137201 0 0 0 0.654587,0.140918 0.78641379,0.78641379 0 0 1 0.100007,-0.695498 c 0,-0.02273 0.109098,0.545489 0.572763,0.622766 a 5.6594518,5.6594518 0 0 0 0.686408,0.04091 1.9728531,1.9728531 0 0 1 0.681862,0.06364 1.386452,1.386452 0 0 1 0.977335,1.418272 1.4637297,1.4637297 0 0 1 -1.254626,1.468275 c 0,0 -0.559126,-0.06364 -0.772776,0.290928 a 1.2682627,1.2682627 0 0 0 -0.172739,0.531852 c 0,0 0.250016,-0.354568 0.422754,-0.39548 0.172739,-0.04091 0.286382,0 0.454575,0.300019 0,0 0.204559,0.09092 0.140918,0.909149 a 2.3956073,2.3956073 0 0 0 0.06364,0.950061 c 0,0 0.186375,0.600038 1.181893,0.909149 a 1.4910041,1.4910041 0 0 1 0.200013,-0.518215 1.3955435,1.3955435 0 0 1 0.250016,0.695499 2.7683583,2.7683583 0 0 0 0.513669,0 2.2274147,2.2274147 0 0 0 -0.145464,1.113707 0.63640422,0.63640422 0 0 0 0.172738,0.454573 c 0,0 -0.568218,0.381844 -0.590947,0.795508 z M 8.2592701,30.871577 a 0.25456168,0.25456168 0 0 0 -0.1863754,-0.236379 0.77277654,0.77277654 0 0 0 -0.4545748,0 0.5727638,0.5727638 0 0 1 0.268199,-0.11819 0.70004465,0.70004465 0 0 1 0.2454702,0 0.25001594,0.25001594 0 0 1 0.2272872,0.163647 c 0,0 0.050003,0.122735 -0.1000062,0.190922 z m 2.3865159,0 a 0.90914886,0.90914886 0 0 0 0.645496,0.159101 0.35002232,0.35002232 0 0 0 0.30911,-0.277291 v 0 c 0,-0.163647 0.277291,-0.504578 0.277291,-0.504578 a 0.27729041,0.27729041 0 0 1 -0.05909,0.04091 0.93642335,0.93642335 0 0 1 -0.486395,0.15001 l -0.368205,0.02273 a 0.40002552,0.40002552 0 0 0 -0.313657,0.131827 0.85005421,0.85005421 0 0 0 -0.136372,0.340931 l 0.0591,-0.06819 a 0.04545744,0.04545744 0 0 1 0.05909,0.0045 z m -0.60913,0.509123 c 0,0 -0.3500221,0.454574 0.204559,0.454574 v 0 c 0.550035,0 0.200012,-0.454574 0.200012,-0.454574 0,0 0.677316,0.518215 0.200013,0.677316 h 0.04091 c 0.809142,0 0.454575,-0.777322 0.454575,-0.777322 0,0 0.622766,0.700044 0.07728,0.986426 h 0.02727 a 0.13182658,0.13182658 0 0 1 0.04546,0.18183 c -0.05,0.08637 -0.909149,0.88642 -0.909149,0.88642 -0.07728,0.150009 -0.218196,0.150009 -0.295474,0 0,0 -0.8409623,-0.800051 -0.9091485,-0.88642 a 0.13637233,0.13637233 0 0 1 0.045457,-0.18183 0.03636596,0.03636596 0 0 0 0.027273,0 c -0.5409436,-0.286382 0.081823,-0.986426 0.081823,-0.986426 0,0 -0.3636593,0.777322 0.4545747,0.777322 h 0.040911 C 9.3638822,31.912552 10.036652,31.3807 10.036652,31.3807 Z m 0.563672,1.441001 c 0,0 0.454575,-0.454575 0.48185,-0.495486 v 0 a 1.9728531,1.9728531 0 0 1 -0.309111,0.06819 c 0,0 -0.06364,0.195467 -0.172739,0.445483 z m -0.7045898,0 c -0.1090981,-0.250016 -0.1772843,-0.4273 -0.1772843,-0.4273 a 2.1092254,2.1092254 0 0 1 -0.3091104,-0.06819 v 0 c 0,0 0.4863947,0.513669 0.4863947,0.513669 z m 0.031819,-0.4273 c 0,0 0.1136438,0.581855 0.3182028,0.581855 0.204558,0 0.322747,-0.581855 0.322747,-0.581855 h -0.06364 a 0.26365317,0.26365317 0 0 1 -0.163647,-0.05909 h -0.190921 a 0.28638189,0.28638189 0 0 1 -0.1636472,0.05909 h -0.06364 z M 9.2275125,30.989766 c 0,0 0.3863882,0.122735 0.4545744,-0.204559 v 0 a 0.09546063,0.09546063 0 0 1 0.081823,-0.05455 0.09091489,0.09091489 0 0 1 0.063641,0.02727 v 0 a 0.98188079,0.98188079 0 0 1 0.1681925,0.168192 0.85914568,0.85914568 0 0 0 -0.1363725,-0.34093 0.39093401,0.39093401 0 0 0 -0.3182019,-0.131827 3.1547466,3.1547466 0 0 1 -0.5045777,0 c 0,0 -0.140918,0.02273 -0.3500223,-0.177284 A 0.26365317,0.26365317 0 0 0 8.63202,30.235168 c 0,0 0.300019,0.727319 0.5954924,0.772777 z m 3.0138285,-0.136372 a 0.26365317,0.26365317 0 0 1 0.186376,-0.259108 0.60912973,0.60912973 0 0 1 0.454574,-0.02273 c 0,0 0,-0.05909 -0.231833,-0.118189 a 0.85914568,0.85914568 0 0 0 -0.327294,0 0.24547019,0.24547019 0 0 0 -0.172738,0.200013 c 0,0 -0.07273,0.15001 0.09092,0.218196 z"
       fill="#231f20"
       stroke-width="0.454574"
       id="path71" />
    <path
       d="m 27.719601,33.385373 -1.009155,-3.368396 c 0,0 1.550099,1.918304 1.618285,2.013764 0.122735,0.168193 0.300019,0.08637 0.295473,-0.08182 -0.0045,-0.168193 -0.177284,-2.459248 -0.190921,-2.727447 0,0 1.140982,2.522889 1.204622,2.677444 0.06364,0.154555 0.268199,0.159101 0.304565,-0.03182 0.03636,-0.190922 0.481849,-2.872911 0.481849,-2.872911 0,0 0.454574,2.650169 0.481849,2.872911 0.02727,0.222741 0.227287,0.204558 0.304565,0.03182 0.07728,-0.172738 1.204622,-2.677444 1.204622,-2.677444 0,0.286382 -0.190921,2.600166 -0.190921,2.727447 0,0.127281 0.172738,0.254561 0.295473,0.08182 0.06819,-0.09546 1.618285,-2.013764 1.618285,-2.013764 l -1.013701,3.391125 z"
       fill="#ffcb05"
       stroke-width="0.454574"
       id="path72" />
    <path
       d="m 30.933442,34.962747 0.04546,-0.04546 v -0.754594 l -0.04546,-0.04091 h -1.018246 l -0.04546,0.04091 v 0.754594 l 0.04546,0.04546 z m -0.777322,-0.57731 h 0.554581 v 0.322748 H 30.15612 Z"
       fill="#231f20"
       stroke-width="0.454574"
       id="path73" />
    <path
       d="m 32.165339,34.976384 a 0.45457443,0.45457443 0 1 0 0,-0.868237 0.45457443,0.45457443 0 1 0 0,0.868237 z m 0,-0.650042 a 0.2091045,0.2091045 0 1 1 0,0.418209 0.2091045,0.2091045 0 1 1 0,-0.418209 z"
       fill="#231f20"
       stroke-width="0.454574"
       id="path74" />
    <path
       d="m 28.687845,34.976384 a 0.45457443,0.45457443 0 1 0 -0.454575,-0.454575 0.45457443,0.45457443 0 0 0 0.454575,0.454575 z m 0,-0.650042 a 0.2091045,0.2091045 0 1 1 0,0.418209 0.2091045,0.2091045 0 1 1 0,-0.418209 z"
       fill="#231f20"
       stroke-width="0.454574"
       id="path75" />
    <path
       d="m 34.560946,29.203288 a 0.26819892,0.26819892 0 0 0 -0.318202,0.104552 l -1.600102,1.981945 0.163647,-2.572891 c 0,-0.236379 -0.07273,-0.30002 -0.18183,-0.331839 a 0.26819892,0.26819892 0 0 0 -0.313656,0.186375 c -0.100006,0.222741 -1.177348,2.586528 -1.177348,2.586528 l -0.454574,-2.822907 c -0.06819,-0.281836 -0.154555,-0.359114 -0.254562,-0.359114 -0.100006,0 -0.18183,0.07728 -0.250016,0.359114 l -0.454574,2.822907 c 0,0 -1.077342,-2.363787 -1.177348,-2.586528 a 0.26819892,0.26819892 0 0 0 -0.313657,-0.186375 c -0.109097,0.03182 -0.172738,0.09546 -0.181829,0.331839 l 0.163647,2.577437 -1.600102,-1.981945 a 0.26819892,0.26819892 0 0 0 -0.318203,-0.104552 c -0.113643,0.04091 -0.131826,0.186375 -0.09546,0.313656 0.06364,0.200013 1.113707,3.872975 1.113707,3.872975 h -0.222741 a 0.21364998,0.21364998 0 1 0 0,0.422754 h 0.209104 v 1.441001 h -0.209104 a 0.21364998,0.21364998 0 0 0 -0.218196,0.209104 0.20910424,0.20910424 0 0 0 0.218196,0.204559 h 6.677698 a 0.20910424,0.20910424 0 0 0 0.218196,-0.204559 0.21364998,0.21364998 0 0 0 -0.218196,-0.209104 h -0.209104 v -1.441001 h 0.209104 a 0.21364998,0.21364998 0 1 0 0,-0.422754 H 33.5427 c 0,0 1.054613,-3.668416 1.113707,-3.872975 0.03636,-0.131826 0.01818,-0.281836 -0.09546,-0.318202 z m -1.363723,6.045841 h -5.513988 v -1.436456 h 5.504897 z m -0.05,-1.863756 h -5.427622 l -1.009155,-3.368396 c 0,0 1.550099,1.918304 1.618285,2.013764 0.122735,0.168193 0.300019,0.08637 0.295473,-0.08182 -0.0045,-0.168193 -0.177284,-2.459248 -0.190921,-2.727447 0,0 1.140982,2.522889 1.204622,2.677444 0.06364,0.154555 0.268199,0.159101 0.304565,-0.03182 0.03636,-0.190922 0.481849,-2.872911 0.481849,-2.872911 0,0 0.454574,2.650169 0.481849,2.872911 0.02727,0.222741 0.227287,0.204558 0.304565,0.03182 0.07728,-0.172738 1.204622,-2.677444 1.204622,-2.677444 0,0.286382 -0.190921,2.600166 -0.190921,2.727447 0,0.127281 0.172738,0.254561 0.295473,0.08182 0.06819,-0.09546 1.618285,-2.013764 1.618285,-2.013764 z"
       fill="#231f20"
       stroke-width="0.454574"
       id="path76" />
    <path
       d="m 30.933442,34.962747 0.04546,-0.04546 v -0.754594 l -0.04546,-0.04091 h -1.018246 l -0.04546,0.04091 v 0.754594 l 0.04546,0.04546 z m -0.777322,-0.57731 h 0.554581 v 0.322748 H 30.15612 Z m 2.009219,0.590947 a 0.45457443,0.45457443 0 1 0 0,-0.868237 0.45457443,0.45457443 0 1 0 0,0.868237 z m 0,-0.650042 a 0.2091045,0.2091045 0 1 1 0,0.418209 0.2091045,0.2091045 0 1 1 0,-0.418209 z m -3.486586,0.650042 a 0.45457443,0.45457443 0 1 0 -0.454574,-0.454575 0.45457443,0.45457443 0 0 0 0.463666,0.454575 z m 0,-0.650042 a 0.2091045,0.2091045 0 1 1 0,0.418209 0.2091045,0.2091045 0 1 1 0,-0.418209 z m 4.495741,0.909149 h -5.491259 v -1.422818 h 5.504897 z"
       fill="#ffcb05"
       stroke-width="0.454574"
       id="path77" />
    <path
       d="m 37.352033,33.385373 -1.009155,-3.368396 c 0,0 1.550099,1.918304 1.618285,2.013764 0.127281,0.168193 0.30002,0.08637 0.295474,-0.08182 -0.0045,-0.168193 -0.177284,-2.459248 -0.190922,-2.727447 0,0 1.140982,2.522889 1.204623,2.677444 0.06364,0.154555 0.268199,0.159101 0.304564,-0.03182 0.03637,-0.190922 0.504578,-2.918368 0.504578,-2.918368 0,0 0.454575,2.650169 0.481849,2.87291 0.02727,0.222742 0.227287,0.204559 0.304565,0.03182 0.07728,-0.172738 1.204622,-2.677443 1.204622,-2.677443 0,0.286382 -0.19092,2.600166 -0.19092,2.727446 0,0.127281 0.172738,0.254562 0.295472,0.08182 0.06819,-0.09546 1.618286,-2.013765 1.618286,-2.013765 l -1.013702,3.391125 z"
       fill="#ffcb05"
       stroke-width="0.454574"
       id="path78" />
    <path
       d="m 40.57042,34.962747 0.04546,-0.04546 v -0.754594 l -0.04546,-0.05455 h -1.018246 l -0.04546,0.04091 v 0.754594 l 0.04546,0.04546 z m -0.777322,-0.57731 h 0.554581 v 0.322748 h -0.559126 z"
       fill="#231f20"
       stroke-width="0.454574"
       id="path79" />
    <path
       d="m 41.802318,34.976384 a 0.45457443,0.45457443 0 1 0 0,-0.868237 0.45457443,0.45457443 0 1 0 0,0.868237 z m 0,-0.650042 a 0.2091045,0.2091045 0 1 1 0,0.418209 0.2091045,0.2091045 0 1 1 0,-0.418209 z"
       fill="#231f20"
       stroke-width="0.454574"
       id="path80" />
    <path
       d="m 38.324823,34.976384 a 0.45457443,0.45457443 0 1 0 -0.454575,-0.454575 0.45457443,0.45457443 0 0 0 0.454575,0.454575 z m 0,-0.650042 a 0.2091045,0.2091045 0 1 1 0,0.418209 0.2091045,0.2091045 0 1 1 0,-0.418209 z"
       fill="#231f20"
       stroke-width="0.454574"
       id="path81" />
    <path
       d="m 44.197923,29.203288 a 0.26819892,0.26819892 0 0 0 -0.318199,0.104552 l -1.595559,1.981945 0.163647,-2.577437 c 0,-0.236379 -0.07273,-0.300019 -0.181829,-0.331839 a 0.26819892,0.26819892 0 0 0 -0.313655,0.186375 c -0.100009,0.222742 -1.177349,2.586529 -1.177349,2.586529 l -0.454574,-2.822908 c -0.06819,-0.281836 -0.154556,-0.359113 -0.254562,-0.359113 -0.100006,0 -0.18183,0.07728 -0.250016,0.359113 l -0.454574,2.822908 c 0,0 -1.077342,-2.363787 -1.177348,-2.586529 a 0.26819892,0.26819892 0 0 0 -0.313657,-0.186375 c -0.109098,0.03182 -0.172738,0.09546 -0.181829,0.331839 l 0.159101,2.577437 -1.595557,-1.981945 a 0.26819892,0.26819892 0 0 0 -0.318202,-0.104552 c -0.113643,0.04091 -0.131826,0.186376 -0.09546,0.313657 0.05909,0.200012 1.113707,3.872974 1.113707,3.872974 h -0.222741 a 0.21364998,0.21364998 0 1 0 0,0.422754 h 0.209104 v 1.441001 h -0.209104 a 0.21364998,0.21364998 0 0 0 -0.218196,0.209104 0.20910424,0.20910424 0 0 0 0.218196,0.204559 h 6.668606 a 0.20910424,0.20910424 0 0 0 0.218198,-0.204559 0.21364998,0.21364998 0 0 0 -0.218198,-0.209104 H 43.18877 v -1.436455 h 0.209103 a 0.21364998,0.21364998 0 1 0 0,-0.422754 h -0.222739 c 0,0 1.054612,-3.668416 1.113704,-3.872975 0.04091,-0.131826 0.01817,-0.281836 -0.09092,-0.318202 z m -1.363721,6.045841 h -5.518534 v -1.436456 h 5.491257 z m -0.05,-1.863756 h -5.432169 l -1.009155,-3.368396 c 0,0 1.550099,1.918304 1.618285,2.013764 0.127281,0.168193 0.30002,0.08637 0.295474,-0.08182 -0.0045,-0.168193 -0.177284,-2.459248 -0.190922,-2.727447 0,0 1.140982,2.522889 1.204623,2.677444 0.06364,0.154555 0.268199,0.159101 0.304564,-0.03182 0.03637,-0.190922 0.504578,-2.918368 0.504578,-2.918368 0,0 0.454575,2.650169 0.481849,2.87291 0.02727,0.222742 0.227287,0.204559 0.304565,0.03182 0.07728,-0.172738 1.204622,-2.677443 1.204622,-2.677443 0,0.286382 -0.19092,2.600166 -0.19092,2.727446 0,0.127281 0.172738,0.254562 0.295472,0.08182 0.06819,-0.09546 1.618286,-2.013765 1.618286,-2.013765 z"
       fill="#231f20"
       stroke-width="0.454574"
       id="path82" />
    <path
       d="m 40.57042,34.962747 0.04546,-0.04546 v -0.754594 l -0.04546,-0.05455 h -1.018246 l -0.04546,0.04091 v 0.754594 l 0.04546,0.04546 z m -0.777322,-0.57731 h 0.554581 v 0.322748 h -0.559126 z m 2.00922,0.590947 a 0.45457443,0.45457443 0 1 0 0,-0.868237 0.45457443,0.45457443 0 1 0 0,0.868237 z m 0,-0.650042 a 0.2091045,0.2091045 0 1 1 0,0.418209 0.2091045,0.2091045 0 1 1 0,-0.418209 z m -3.486587,0.650042 a 0.45457443,0.45457443 0 1 0 -0.454574,-0.454575 0.45457443,0.45457443 0 0 0 0.463666,0.454575 z m 0,-0.650042 a 0.2091045,0.2091045 0 1 1 0,0.418209 0.2091045,0.2091045 0 1 1 0,-0.418209 z m 4.49574,0.909149 h -5.495803 v -1.422818 h 5.491257 z"
       fill="#ffcb05"
       stroke-width="0.454574"
       id="path83" />
    <path
       d="m 32.533545,41.304061 -1.013701,-3.391126 c 0,0 1.550098,1.918304 1.618284,2.013764 0.127281,0.168193 0.30002,0.08637 0.295474,-0.08637 -0.0045,-0.172738 -0.177284,-2.459248 -0.190921,-2.727447 0,0 1.140981,2.52289 1.204622,2.677442 0.06364,0.154557 0.268199,0.159102 0.304565,-0.03181 0.03636,-0.19092 0.481848,-2.872909 0.481848,-2.872909 0,0 0.454575,2.65017 0.48185,2.872909 0.02727,0.222743 0.227287,0.204561 0.304565,0.03181 0.07728,-0.172738 1.204622,-2.677442 1.204622,-2.677442 0,0.286382 -0.190922,2.595619 -0.190922,2.727447 0,0.131825 0.172739,0.254562 0.295474,0.08637 0.06819,-0.09546 1.618285,-2.013764 1.618285,-2.013764 l -1.013701,3.391126 z"
       fill="#ffcb05"
       stroke-width="0.454574"
       id="path84" />
    <path
       d="m 35.747386,42.881434 0.04546,-0.04091 v -0.759137 l -0.04091,-0.04091 h -1.022793 l -0.04546,0.04091 v 0.754591 l 0.04546,0.04091 z m -0.777323,-0.590948 h 0.563673 v 0.322749 h -0.563673 z"
       fill="#231f20"
       stroke-width="0.454574"
       id="path85" />
    <path
       d="m 36.979283,42.89507 a 0.45457443,0.45457443 0 1 0 0,-0.868237 0.45457443,0.45457443 0 1 0 0,0.868237 z m 0,-0.645494 a 0.20910425,0.20910425 0 1 1 0,0.418206 0.20910425,0.20910425 0 1 1 0,-0.418206 z"
       fill="#231f20"
       stroke-width="0.454574"
       id="path86" />
    <path
       d="m 33.501788,42.89507 a 0.45457443,0.45457443 0 1 0 -0.454574,-0.454573 0.45457443,0.45457443 0 0 0 0.454574,0.454573 z m 0,-0.645494 a 0.20910425,0.20910425 0 1 1 0,0.418206 0.20910425,0.20910425 0 1 1 0,-0.418206 z"
       fill="#231f20"
       stroke-width="0.454574"
       id="path87" />
    <path
       d="m 39.37489,37.121975 a 0.26819892,0.26819892 0 0 0 -0.318202,0.104552 l -1.600102,1.981946 0.159101,-2.577438 c 0,-0.236379 -0.07273,-0.300019 -0.18183,-0.33184 a 0.26819892,0.26819892 0 0 0 -0.313656,0.186376 c -0.100007,0.222741 -1.177348,2.586528 -1.177348,2.586528 l -0.454575,-2.822907 c -0.06819,-0.281836 -0.154555,-0.359114 -0.254562,-0.359114 -0.100006,0 -0.181829,0.07728 -0.250015,0.359114 l -0.454575,2.822907 c 0,0 -1.077341,-2.363787 -1.177347,-2.586528 a 0.26819892,0.26819892 0 0 0 -0.313657,-0.186376 c -0.109098,0.03182 -0.172738,0.09546 -0.18183,0.33184 l 0.159101,2.577438 -1.572827,-1.981946 a 0.26819892,0.26819892 0 0 0 -0.318202,-0.104552 c -0.113644,0.04091 -0.131827,0.186376 -0.09546,0.313656 0.05909,0.200013 1.113707,3.872975 1.113707,3.872975 h -0.24547 a 0.21364998,0.21364998 0 1 0 0,0.422755 h 0.209105 v 1.440999 h -0.209105 a 0.21364998,0.21364998 0 0 0 -0.218195,0.209107 0.20910424,0.20910424 0 0 0 0.218195,0.204557 h 6.682244 A 0.20910424,0.20910424 0 0 0 38.79758,43.381467 0.21364998,0.21364998 0 0 0 38.579384,43.17236 H 38.37028 v -1.436453 h 0.209104 a 0.21364998,0.21364998 0 1 0 0,-0.422755 h -0.227287 c 0,0 1.054613,-3.668416 1.113708,-3.872975 0.04091,-0.150009 0.02273,-0.27729 -0.09092,-0.318202 z m -1.363724,6.045839 h -5.513987 v -1.436453 h 5.50035 z m -0.05,-1.863753 h -5.427618 l -1.013701,-3.391126 c 0,0 1.550098,1.918304 1.618284,2.013764 0.127281,0.168193 0.30002,0.08637 0.295474,-0.08637 -0.0045,-0.172738 -0.177284,-2.459248 -0.190921,-2.727447 0,0 1.140981,2.52289 1.204622,2.677442 0.06364,0.154557 0.268199,0.159102 0.304565,-0.03181 0.03636,-0.19092 0.481848,-2.872909 0.481848,-2.872909 0,0 0.454575,2.65017 0.48185,2.872909 0.02727,0.222743 0.227287,0.204561 0.304565,0.03181 0.07728,-0.172738 1.204622,-2.677442 1.204622,-2.677442 0,0.286382 -0.190922,2.595619 -0.190922,2.727447 0,0.131825 0.172739,0.254562 0.295474,0.08637 0.06819,-0.09546 1.618285,-2.013764 1.618285,-2.013764 z"
       fill="#231f20"
       stroke-width="0.454574"
       id="path88" />
    <path
       d="m 35.747386,42.881434 0.04546,-0.04091 v -0.759137 l -0.04091,-0.04091 h -1.022793 l -0.04546,0.04091 v 0.754591 l 0.04546,0.04091 z m -0.777323,-0.590948 h 0.563673 v 0.322749 h -0.563673 z m 2.00922,0.590948 a 0.45457443,0.45457443 0 1 0 0,-0.868238 0.45457443,0.45457443 0 1 0 0,0.868238 z m 0,-0.645498 a 0.20910463,0.20910463 0 1 1 0,0.418209 0.20910463,0.20910463 0 1 1 0,-0.418209 z m -3.486586,0.645498 a 0.45457443,0.45457443 0 1 0 -0.454575,-0.454574 0.45457443,0.45457443 0 0 0 0.463666,0.46821 z m 0,-0.645498 a 0.20910463,0.20910463 0 1 1 0,0.418209 0.20910463,0.20910463 0 1 1 0,-0.418209 z m 4.495741,0.909151 h -5.491259 v -1.413726 h 5.50035 z"
       fill="#ffcb05"
       stroke-width="0.454574"
       id="path89" />
  </g>
</svg>
