<?xml version="1.0" encoding="UTF-8" standalone="no"?> <svg xmlns:dc="http://purl.org/dc/elements/1.1/" xmlns:cc="http://creativecommons.org/ns#" xmlns:rdf="http://www.w3.org/1999/02/22-rdf-syntax-ns#" xmlns:svg="http://www.w3.org/2000/svg" xmlns="http://www.w3.org/2000/svg" xmlns:xlink="http://www.w3.org/1999/xlink" xmlns:sodipodi="http://sodipodi.sourceforge.net/DTD/sodipodi-0.dtd" xmlns:inkscape="http://www.inkscape.org/namespaces/inkscape" sodipodi:docname="edibo_icon_pink_notext_minimal.svg" inkscape:version="1.0 (4035a4fb49, 2020-05-01)" id="svg8" version="1.1" viewBox="0 0 142.87499 142.875" height="540" width="540" inkscape:export-filename="C:\Users\scrowley\Desktop\Multimedia\Inkscape\Projects\icons\edibo_icon_pink_notext_minimal.png" inkscape:export-xdpi="95.907303" inkscape:export-ydpi="95.907303"><title id="title976">edibo_icon_notext</title><defs id="defs2"><linearGradient id="linearGradient922" inkscape:collect="always"><stop id="stop918" offset="0" style="stop-color:#80e5ff;stop-opacity:1"></stop><stop id="stop920" offset="1" style="stop-color:#ff00ff;stop-opacity:1"></stop></linearGradient><rect id="rect894" height="74.612503" width="92.604164" y="12.7" x="-127"></rect><marker inkscape:stockid="Arrow1Lstart" orient="auto" refY="0" refX="0" id="marker1207" style="overflow:visible" inkscape:isstock="true"><path id="path1205" d="M 0,0 5,-5 -12.5,0 5,5 Z" style="fill:#00ff00;fill-opacity:1;fill-rule:evenodd;stroke:#ffffff;stroke-width:1pt;stroke-opacity:1" transform="matrix(0.8,0,0,0.8,10,0)"></path></marker><marker inkscape:stockid="Arrow1Lstart" orient="auto" refY="0" refX="0" id="marker1185" style="overflow:visible" inkscape:isstock="true"><path id="path1183" d="M 0,0 5,-5 -12.5,0 5,5 Z" style="fill-rule:evenodd;stroke:#000000;stroke-width:1pt" transform="matrix(0.8,0,0,0.8,10,0)"></path></marker><marker inkscape:stockid="Arrow1Lstart" orient="auto" refY="0" refX="0" id="marker1157" style="overflow:visible" inkscape:isstock="true"><path id="path1155" d="M 0,0 5,-5 -12.5,0 5,5 Z" style="fill:#808000;fill-opacity:1;fill-rule:evenodd;stroke:none;stroke-width:1pt;stroke-opacity:1" transform="matrix(0.8,0,0,0.8,10,0)"></path></marker><marker inkscape:stockid="Arrow1Lstart" orient="auto" refY="0" refX="0" id="Arrow1Lstart" style="overflow:visible" inkscape:isstock="true"><path id="path885" d="M 0,0 5,-5 -12.5,0 5,5 Z" style="fill:#808000;fill-opacity:1;fill-rule:evenodd;stroke:none;stroke-width:1pt;stroke-opacity:1" transform="matrix(0.8,0,0,0.8,10,0)"></path></marker><rect x="-127" y="12.7" width="92.604164" height="74.612503" id="rect902"></rect><filter height="1.0000024" y="-1.1788002e-06" width="1.0000024" x="-1.2219762e-06" id="filter3156" style="color-interpolation-filters:sRGB" inkscape:collect="always"><feGaussianBlur id="feGaussianBlur3158" stdDeviation="8.8217175e-05" inkscape:collect="always"></feGaussianBlur></filter><linearGradient gradientUnits="userSpaceOnUse" y2="24.257538" x2="-0.2204124" y1="97.193062" x1="106.73453" id="linearGradient924" xlink:href="#linearGradient922" inkscape:collect="always"></linearGradient></defs><metadata id="metadata5"></metadata><g style="filter:url(#filter3156)" transform="translate(15.004173,17.421242)" id="layer1" inkscape:groupmode="layer" inkscape:label="Pink_ring"></g><g transform="translate(15.004173,17.421242)" inkscape:label="Boyle_flask" id="layer3" inkscape:groupmode="layer"><circle style="fill:url(#linearGradient924);stroke:none;stroke-width:1.96053;stroke-linecap:butt;stroke-linejoin:round;stroke-miterlimit:4;stroke-dasharray:none;stroke-dashoffset:0;fill-opacity:1" id="circle1202" cx="56.387936" cy="55.184189" r="65.078537"></circle><circle r="65.078537" cy="55.184189" cx="56.387936" id="path908" style="fill:none;stroke:#000000;stroke-width:1.96053;stroke-linecap:butt;stroke-linejoin:round;stroke-miterlimit:4;stroke-dasharray:none;stroke-dashoffset:0;fill-opacity:1"></circle><path id="path854" style="fill:#e6e6e6;stroke:#e6e6e6;stroke-width:2.78303;stroke-linejoin:round;stroke-miterlimit:4;stroke-dasharray:none;stroke-opacity:1" d="m 57.390198,7.1937932 c -9.66919,0.025765 -19.344196,2.6748938 -27.52768,7.8029908 -2.58651,1.496342 -4.220699,3.851113 -4.473554,6.697168 h 0.619331 c 0.461244,-3.479275 3.754952,-5.570989 6.806076,-7.087317 7.307177,-4.399205 15.759988,-6.4833397 24.231752,-6.4560172 6.589154,0.021263 13.189661,1.3198422 19.271111,3.7991692 12.46593,5.4489 22.151652,16.874784 25.857566,29.933203 2.98507,9.670267 3.06577,20.31135 -0.85687,29.741121 -4.765033,13.723706 -15.782246,25.319782 -29.694455,29.847639 -15.39213,5.19287 -33.774814,1.70386 -45.354284,-9.930267 h 0.04309 a 8.6173553,40.26167 0 0 1 1.241056,-20.238706 18.392078,30.148194 0 0 0 15.38637,-29.742317 18.392078,30.148194 0 0 0 -1.108815,-10.309044 17.289545,3.4328103 0 0 0 0,-6.12e-4 17.289546,3.4328103 0 0 0 0.0061,-0.09035 17.289546,3.4328103 0 0 0 -17.289845,-3.432358 17.289546,3.4328103 0 0 0 -0.219009,0 h -6.13e-4 a 17.289546,3.4328103 0 0 0 -17.0696372,3.432358 17.289546,3.4328103 0 0 0 0.00659,0.09096 18.392078,30.148194 0 0 0 -1.1088143,10.309043 18.392078,30.148194 0 0 0 15.2463495,29.70342 8.6173553,40.26167 0 0 1 1.245247,20.224345 v 0.05326 h 0.103522 C 30.501678,102.17801 44.296966,106.04308 56.886987,106.48024 80.006294,106.41888 101.24612,88.015474 105.34386,65.376317 108.5448,51.166646 103.77135,36.065924 95.043813,24.727782 89.046202,17.712309 81.44288,11.675598 72.364278,9.333035 67.518027,7.8863601 62.455016,7.1802942 57.390198,7.1937932 Z"></path><path id="path905" d="m 16.424917,46.227436 c -3.194211,-5.05e-4 -6.4884988,0.683798 -9.8345856,2.527142 A 18.392078,30.148194 0 0 0 24.547377,72.38904 18.392078,30.148194 0 0 0 42.001964,51.742639 c -1.4012,0.274544 -2.923776,0.173088 -4.544405,-0.156276 -2.94983,-0.599504 -6.238694,-1.941255 -9.777712,-3.13049 -3.539019,-1.189237 -7.320907,-2.227961 -11.25493,-2.228437 z" style="fill:#666666;fill-opacity:1;stroke:none;stroke-width:0.928072;stroke-linejoin:round"></path><path id="path900" d="m 32.961254,44.604825 c -3.947074,5.07e-4 -7.741507,1.038705 -11.292265,2.22794 -3.550758,1.189235 -6.850531,2.531481 -9.81015,3.130985 -1.782812,0.361127 -3.4471251,0.447347 -4.9623831,0.06479 A 18.453088,30.148194 0 0 0 24.605929,71.708542 18.453088,30.148194 0 0 0 42.746097,47.088941 c -3.328864,-1.809463 -6.606269,-2.484498 -9.784843,-2.484116 z" style="fill:#000000;stroke:none;stroke-width:0.929611;stroke-linejoin:round"></path><path d="M 7.8830783,34.932946 A 18.392078,30.148194 0 0 0 7.4330398,41.560384 18.392078,30.148194 0 0 0 24.698215,71.65167 19.881852,32.590221 0 0 1 11.398824,40.899669 19.881852,32.590221 0 0 1 11.624336,36.003641 C 11.107998,35.895176 10.592842,35.779113 10.080358,35.648061 9.3650612,35.45552 8.6032926,35.234559 7.8830783,34.932946 Z" style="opacity:0.5;fill:#ffffff;stroke:none;stroke-width:0.928072;stroke-linejoin:round" id="path874"></path><path id="path930" d="m 41.837138,30.224231 a 17.289546,3.4328106 0 0 1 -17.289546,3.43281 17.289546,3.4328106 0 0 1 -17.2895455,-3.43281 17.289546,3.4328106 0 0 1 17.2895455,-3.43281 17.289546,3.4328106 0 0 1 17.289546,3.43281" style="fill:#cfc6d1;fill-opacity:1;stroke:none;stroke-width:0.303636;stroke-linejoin:round"></path><path d="m 14.013006,27.502172 a 17.289546,3.4328105 0 0 0 -6.755036,2.721993 17.289546,3.4328105 0 0 0 17.289407,3.43266 17.289546,3.4328105 0 0 0 17.289903,-3.43266 17.289546,3.4328105 0 0 0 -6.75553,-2.721993 15.236646,3.2036387 0 0 1 4.70266,2.314484 15.236646,3.2036387 0 0 1 -15.237033,3.203685 15.236646,3.2036387 0 0 1 -15.2365345,-3.203685 15.236646,3.2036387 0 0 1 4.7021635,-2.314484 z" style="fill:#ffffff;fill-opacity:1;stroke:none;stroke-width:0.303635;stroke-linejoin:round" id="path941"></path></g><g transform="translate(15.004173,17.421242)" inkscape:label="Lemon" id="layer4" inkscape:groupmode="layer"><g transform="rotate(-5.6689793,5.9342899,29.732)" id="g79"><path transform="rotate(-3.4511087)" style="opacity:1;fill:#000000;stroke:none;stroke-width:0.393079;stroke-linecap:round;stroke-linejoin:round;stroke-miterlimit:4;stroke-dasharray:0.393079, 0.393079;stroke-dashoffset:0" id="path1063" sodipodi:type="arc" sodipodi:cx="4.1337571" sodipodi:cy="30.035307" sodipodi:rx="12.533171" sodipodi:ry="12.533171" sodipodi:start="0.99067605" sodipodi:end="0.41623452" sodipodi:arc-type="slice" d="M 11.003496,40.51801 A 12.533171,12.533171 0 0 1 -5.2578561,38.334582 12.533171,12.533171 0 0 1 -5.4241851,21.928143 12.533171,12.533171 0 0 1 10.789557,19.415482 12.533171,12.533171 0 0 1 15.596819,35.10271 L 4.1337571,30.035307 Z"></path><g id="g63" transform="rotate(-2.6366035,6.1321245,30.093978)"><path id="path1067" d="m 6.7612762,30.814507 a 1.3622505,1.3622505 0 0 1 -1.7829136,-0.111975 1.3622505,1.3622505 0 0 1 -0.138985,-1.78101 1.3622505,1.3622505 0 0 1 1.7439556,-0.387217 1.3622505,1.3622505 0 0 1 0.6277976,1.672483 L 5.9342952,29.732 Z" style="opacity:1;fill:#ffffff;stroke:none;stroke-width:0.0427241;stroke-linecap:round;stroke-linejoin:round;stroke-miterlimit:4;stroke-dasharray:0.0427241, 0.0427241;stroke-dashoffset:0"></path><path style="opacity:1;fill:#ffff00;stroke:none;stroke-width:0.322085;stroke-linecap:round;stroke-linejoin:round;stroke-miterlimit:4;stroke-dasharray:0.322085, 0.322085;stroke-dashoffset:0" d="m 6.0740022,27.879101 c -0.062786,0.729452 0.702778,0.895337 1.4970954,0.34696 C 9.4898902,26.90138 12.101503,24.967519 14.266089,23.581641 13.707365,20.168 10.371887,18.559203 6.5928183,19.116465 6.0428177,21.887481 5.9987985,24.859601 6.0740022,27.879101 Z" id="path1094" sodipodi:nodetypes="csccc"></path><path sodipodi:nodetypes="cccc" id="path1100" d="m 7.9872108,29.004189 c -1.2787295,1.054186 6.6112552,2.699464 8.6761842,3.939728 2.217228,-2.997956 1.341969,-5.913745 -1.005433,-8.199568 -2.64839,0.967761 -5.142622,2.697594 -7.6707512,4.25984 z" style="opacity:1;fill:#ffff00;stroke:none;stroke-width:0.322085;stroke-linecap:round;stroke-linejoin:round;stroke-miterlimit:4;stroke-dasharray:0.322085, 0.322085;stroke-dashoffset:0"></path><path style="opacity:1;fill:#ffff00;stroke:none;stroke-width:0.322085;stroke-linecap:round;stroke-linejoin:round;stroke-miterlimit:4;stroke-dasharray:0.322085, 0.322085;stroke-dashoffset:0" d="m 4.3583934,28.421248 c 0.5792853,0.447736 1.0467098,-0.112012 0.8401951,-1.054897 -0.4803879,-2.193279 -0.6258432,-5.35377 -0.6190184,-7.923992 -3.1725063,-1.378521 -6.5562133,0.41038 -8.1338218,3.889327 2.4999161,2.112467 5.1627756,3.732495 7.9126451,5.089562 z" id="path1102" sodipodi:nodetypes="csccc"></path><path sodipodi:nodetypes="csccc" id="path1104" d="M 4.1201724,30.475754 C 4.8056342,30.2185 4.592532,29.560248 3.6819623,29.240056 c -2.1181354,-0.744817 -5.7181526,-2.080722 -7.900684,-3.43816 -2.8408824,1.973448 -1.0234881,6.924352 1.1059081,10.095723 3.02115081,-1.220286 4.7104955,-3.581062 7.232986,-5.421865 z" style="opacity:1;fill:#ffff00;stroke:none;stroke-width:0.322085;stroke-linecap:round;stroke-linejoin:round;stroke-miterlimit:4;stroke-dasharray:0.322085, 0.322085;stroke-dashoffset:0"></path><path style="opacity:1;fill:#ffff00;stroke:none;stroke-width:0.322085;stroke-linecap:round;stroke-linejoin:round;stroke-miterlimit:4;stroke-dasharray:0.322085, 0.322085;stroke-dashoffset:0" d="M 6.3950723,31.517386 C 6.2904852,30.792744 5.7413611,30.604993 5.2336943,31.425946 4.0527786,33.335574 0.99263458,35.201249 -0.80048923,37.042658 0.50633252,40.963131 7.022478,42.56568 10.598776,39.888337 Z" id="path1106" sodipodi:nodetypes="csccc"></path><path transform="rotate(-3.4511087)" style="opacity:1;fill:#000000;stroke:none;stroke-width:0.0442946;stroke-linecap:round;stroke-linejoin:round;stroke-miterlimit:4;stroke-dasharray:0.0442946, 0.0442946;stroke-dashoffset:0" id="path1108" sodipodi:type="arc" sodipodi:cx="4.1337571" sodipodi:cy="30.035307" sodipodi:rx="1.4123117" sodipodi:ry="1.4123117" sodipodi:start="0.99067605" sodipodi:end="0.41623452" sodipodi:arc-type="slice" d="M 4.9078798,31.21656 A 1.4123117,1.4123117 0 0 1 3.0754547,30.970518 1.4123117,1.4123117 0 0 1 3.0567118,29.121744 1.4123117,1.4123117 0 0 1 4.883772,28.838602 1.4123117,1.4123117 0 0 1 5.4254826,30.606332 L 4.1337571,30.035307 Z"></path><path sodipodi:nodetypes="csccc" id="path1112" d="m 7.2269742,25.673311 c -0.036081,0.419241 0.4039106,0.514579 0.860432,0.199407 1.1027941,-0.76134 2.6037778,-1.872793 3.8478378,-2.669305 C 11.614126,21.24148 9.6971138,20.316849 7.5251556,20.637127 7.2090519,22.229723 7.1837529,23.9379 7.2269742,25.673311 Z" style="opacity:0.219355;fill:#000000;stroke:none;stroke-width:0.185114;stroke-linecap:round;stroke-linejoin:round;stroke-miterlimit:4;stroke-dasharray:0.185114, 0.185114;stroke-dashoffset:0"></path><path style="opacity:0.219355;fill:#000000;stroke:none;stroke-width:0.185114;stroke-linecap:round;stroke-linejoin:round;stroke-miterlimit:4;stroke-dasharray:0.185114, 0.185114;stroke-dashoffset:0" d="m 10.943017,28.644991 c -0.734928,0.605876 3.799713,1.551473 4.986498,2.264294 1.274316,-1.723028 0.771274,-3.398828 -0.577857,-4.712569 -1.52212,0.556204 -2.955638,1.550398 -4.408641,2.448275 z" id="path1114" sodipodi:nodetypes="cccc"></path><path sodipodi:nodetypes="csccc" id="path1116" d="M 3.0979725,25.860547 C 3.4309066,26.117876 3.6995516,25.796157 3.5808608,25.254262 3.304766,23.99371 3.2211681,22.177271 3.2250894,20.700076 c -1.8233463,-0.792282 -3.76807703,0.23586 -4.6747823,2.235331 1.43678625,1.214103 2.9672221,2.145189 4.5476654,2.92514 z" style="opacity:0.219355;fill:#000000;stroke:none;stroke-width:0.185114;stroke-linecap:round;stroke-linejoin:round;stroke-miterlimit:4;stroke-dasharray:0.185114, 0.185114;stroke-dashoffset:0"></path><path style="opacity:0.219355;fill:#000000;stroke:none;stroke-width:0.185114;stroke-linecap:round;stroke-linejoin:round;stroke-miterlimit:4;stroke-dasharray:0.185114, 0.185114;stroke-dashoffset:0" d="m 1.6023881,30.27627 c 0.3939594,-0.147853 0.2714828,-0.526174 -0.2518522,-0.710197 -1.21736528,-0.428071 -3.2864166,-1.19586 -4.5407919,-1.976027 -1.6327511,1.134208 -0.5882328,3.97966 0.6356028,5.802353 1.73635877,-0.701338 2.70728162,-2.058158 4.1570413,-3.116129 z" id="path1118" sodipodi:nodetypes="csccc"></path><path sodipodi:nodetypes="csccc" id="path1120" d="m 6.0263205,34.120579 c -0.060112,-0.416476 -0.375711,-0.524384 -0.6674836,-0.05254 -0.6787128,1.097528 -2.4374814,2.169794 -3.4680499,3.228114 0.7510744,2.253227 4.4961239,3.174266 6.5515442,1.635508 z" style="opacity:0.219355;fill:#000000;stroke:none;stroke-width:0.185114;stroke-linecap:round;stroke-linejoin:round;stroke-miterlimit:4;stroke-dasharray:0.185114, 0.185114;stroke-dashoffset:0"></path></g></g></g><g transform="translate(15.004173,17.421242)" inkscape:label="Stem_loop" id="layer5" inkscape:groupmode="layer"><path id="rect1458" style="opacity:1;fill:#000000;fill-opacity:1;stroke:none;stroke-width:0.191179;stroke-linejoin:round;stroke-miterlimit:4;stroke-dasharray:none" d="m 103.08257,45.687543 c 1.92677,8.603987 1.54604,17.72904 -1.86818,25.936564 C 96.449372,85.347818 85.432165,96.943895 71.519951,101.47175 56.127824,106.66462 37.74514,103.17562 26.16567,91.541489 h 0.04309 a 8.6173553,40.26167 0 0 1 2.27507,-26.678576 h -8.21468 a 8.6173553,40.26167 0 0 1 2.274475,26.62531 v 0.05327 h 0.103521 c 7.750977,10.636537 21.546266,14.501607 34.136285,14.938777 23.119358,-0.0614 44.359179,-18.464778 48.456929,-41.103937 1.46995,-6.525518 1.25463,-13.238132 -0.24953,-19.688786 z"></path><path sodipodi:nodetypes="cscc" id="path1196" d="m 22.407313,91.191556 c 0.0176,0.06144 0.03173,0.11961 0.04808,0.169231 0.109066,0.331052 0.189671,0.408855 0.189671,0.408855 l 0.0045,0.01227" style="fill:#e6e6e6;fill-opacity:1;stroke:#e6e6e6;stroke-width:0.264583px;stroke-linecap:butt;stroke-linejoin:miter;stroke-opacity:1"></path><path id="path1200" d="m 26.016279,91.579689 v 0 l 0.192481,-0.0382" style="fill:none;stroke:#000000;stroke-width:0.264583px;stroke-linecap:butt;stroke-linejoin:miter;stroke-opacity:1"></path></g></svg> 