<?xml version="1.0" standalone="no"?>
<!DOCTYPE svg PUBLIC "-//W3C//DTD SVG 20010904//EN"
 "http://www.w3.org/TR/2001/REC-SVG-20010904/DTD/svg10.dtd">
<svg version="1.0" xmlns="http://www.w3.org/2000/svg"
 width="700.000000pt" height="700.000000pt" viewBox="0 0 700.000000 700.000000"
 preserveAspectRatio="xMidYMid meet">
<metadata>
Created by potrace 1.14, written by Peter Selinger 2001-2017
</metadata>
<g transform="translate(0.000000,700.000000) scale(0.100000,-0.100000)"
fill="#000000" stroke="none">
<path d="M3220 6669 c-909 -79 -1757 -548 -2303 -1274 -77 -103 -97 -123 -140
-142 -261 -118 -411 -409 -352 -685 13 -65 13 -70 -11 -140 -101 -296 -149
-622 -148 -998 0 -273 12 -392 60 -634 260 -1300 1324 -2328 2636 -2545 347
-58 753 -56 1098 4 921 160 1743 729 2222 1537 327 553 474 1151 446 1813 -40
967 -533 1875 -1334 2461 -207 151 -525 323 -754 407 -454 168 -953 237 -1420
196z m642 -824 c207 -24 479 -90 645 -156 249 -99 498 -264 734 -487 l96 -91
189 276 188 277 64 -70 c488 -526 766 -1136 842 -1844 14 -131 14 -482 0 -615
-93 -891 -535 -1674 -1245 -2205 -418 -313 -891 -510 -1420 -592 -166 -25
-566 -36 -740 -19 -245 24 -493 76 -715 152 -146 49 -256 95 -252 106 2 4 73
111 159 236 85 126 153 229 152 231 -2 1 -29 13 -59 25 -230 95 -473 272 -641
467 l-84 98 -7 261 c-6 234 -28 563 -45 669 -5 34 -11 41 -52 58 -165 72 -345
254 -464 468 -127 230 -216 559 -233 866 l-7 119 74 2 c40 1 96 7 124 14 63
14 199 80 243 117 l34 28 -200 219 c-111 121 -197 221 -192 223 5 2 66 -13
137 -32 70 -19 197 -53 280 -75 l153 -39 7 26 c9 30 11 211 3 257 l-5 30 150
8 c92 5 230 4 355 -2 392 -21 619 -73 692 -159 26 -31 45 -108 70 -287 19
-134 16 -494 -5 -635 -84 -554 -337 -985 -670 -1140 -60 -29 -66 -34 -71 -68
-17 -101 -37 -404 -43 -628 l-6 -251 90 -75 c49 -41 130 -101 179 -133 93 -62
301 -170 344 -179 24 -5 99 103 1262 1811 l1237 1816 -62 70 c-84 94 -260 244
-386 329 -261 175 -572 285 -951 339 -47 7 -177 12 -290 12 -425 0 -747 -84
-1133 -295 -118 -65 -167 -97 -218 -148 -62 -62 -76 -86 -93 -163 -13 -58
-119 -72 -153 -20 -14 21 -15 33 -5 86 27 144 117 261 272 354 319 191 676
313 1050 358 148 18 469 18 622 0z m-2634 -636 c50 -19 103 -62 129 -106 13
-23 23 -47 21 -53 -1 -5 -70 -73 -152 -150 -117 -110 -155 -140 -176 -140 -27
0 -28 2 -40 82 -18 122 -30 246 -30 310 l0 57 38 6 c20 4 42 8 47 11 16 6 133
-6 163 -17z m-342 -32 c0 -1 10 -56 22 -122 12 -66 33 -160 48 -208 35 -112
30 -120 -63 -87 -108 38 -222 88 -299 132 l-72 40 14 42 c46 131 182 225 304
210 25 -3 45 -7 46 -7z m691 -312 c32 -61 35 -140 10 -207 -18 -46 -19 -46
-50 -37 -18 5 -95 21 -172 34 -175 32 -245 52 -245 69 0 21 212 198 300 249
l45 26 43 -42 c24 -23 55 -64 69 -92z m-982 -90 c41 -14 135 -39 207 -56 73
-16 139 -36 147 -44 13 -12 8 -22 -40 -73 -30 -32 -81 -88 -113 -126 -54 -62
-149 -146 -164 -146 -15 1 -103 129 -134 195 -29 61 -33 80 -33 151 0 67 4 86
19 103 24 26 20 26 111 -4z m591 -351 c153 -219 149 -198 54 -248 -142 -74
-333 -51 -442 54 l-50 49 20 28 c12 15 58 69 102 118 45 50 96 113 113 142 18
30 39 53 49 53 11 0 66 -70 154 -196z"/>
<path d="M2200 3954 c-14 -2 -52 -9 -85 -15 -33 -5 -118 -26 -188 -46 -127
-36 -129 -36 -222 -25 -119 15 -223 15 -321 1 l-76 -12 7 -56 c3 -31 9 -65 11
-77 6 -24 -8 -28 -120 -40 l-65 -7 -6 39 c-13 77 -12 76 -46 58 -35 -18 -35
-17 8 -213 99 -452 351 -817 635 -918 42 -15 48 -21 53 -53 14 -91 36 -390 46
-644 l12 -281 33 -45 c42 -58 193 -207 268 -265 260 -200 618 -336 1061 -401
184 -28 500 -25 667 4 776 138 1455 652 1814 1372 101 203 158 373 208 620 39
195 49 315 43 510 -5 151 -30 360 -53 433 -7 22 -94 25 -94 3 0 -8 10 -67 21
-133 30 -164 33 -516 6 -678 -68 -402 -274 -860 -528 -1172 -375 -460 -866
-742 -1449 -829 -139 -21 -450 -24 -590 -6 -306 41 -612 145 -857 293 -112 68
-264 183 -327 248 l-50 51 12 288 c11 259 35 583 47 638 3 15 22 27 64 43 137
50 307 198 412 359 131 200 231 490 275 795 l6 47 -74 34 c-128 60 -214 78
-383 81 -82 2 -161 1 -175 -1z"/>
</g>
</svg>
